<svg width="260" height="260" viewBox="0 0 260 260" fill="none" xmlns="http://www.w3.org/2000/svg">
<g filter="url(#filter0_d_3_282)">
<rect x="100" y="70" width="60" height="60" rx="30" fill="url(#paint0_linear_3_282)"/>
<g filter="url(#filter1_f_3_282)">
<rect x="100.779" y="70.7792" width="58.4416" height="58.4416" rx="29.2208" fill="url(#paint1_linear_3_282)"/>
<rect x="101.029" y="71.0292" width="57.9416" height="57.9416" rx="28.9708" stroke="url(#paint2_linear_3_282)" stroke-width="0.5"/>
</g>
<g filter="url(#filter2_f_3_282)">
<path d="M133.543 95.7954V91.0407C133.543 88.8942 134.067 87.8084 137.751 87.8084H142.374V79.8214H134.66C125.208 79.8214 122.09 83.74 122.09 90.4666V95.7954H115.88V103.782H122.09V127.743H133.543V103.782H141.325L142.374 95.7954H133.543Z" fill="#13488C" fill-opacity="0.5"/>
</g>
<mask id="path-5-inside-1_3_282" fill="white">
<path fill-rule="evenodd" clip-rule="evenodd" d="M135.621 90.8088V95.7955H143.932L142.945 104.172H135.621V129.302H135.615V129.475C132.773 130.234 127.127 130.067 124.84 129.558V128.452H124.841V104.172H118.997V95.7955H124.841V90.2067C124.841 83.152 127.777 79.0422 136.673 79.0422H143.932V87.4189H139.582C136.114 87.4189 135.621 88.5576 135.621 90.8088Z"/>
</mask>
<path fill-rule="evenodd" clip-rule="evenodd" d="M135.621 90.8088V95.7955H143.932L142.945 104.172H135.621V129.302H135.615V129.475C132.773 130.234 127.127 130.067 124.84 129.558V128.452H124.841V104.172H118.997V95.7955H124.841V90.2067C124.841 83.152 127.777 79.0422 136.673 79.0422H143.932V87.4189H139.582C136.114 87.4189 135.621 88.5576 135.621 90.8088Z" fill="white" fill-opacity="0.9"/>
<path d="M135.621 95.7955H135.121V96.2955H135.621V95.7955ZM143.932 95.7955L144.429 95.854L144.495 95.2955H143.932V95.7955ZM142.945 104.172V104.672H143.39L143.442 104.231L142.945 104.172ZM135.621 104.172V103.672H135.121V104.172H135.621ZM135.621 129.302V129.802H136.121V129.302H135.621ZM135.615 129.302V128.802H135.115V129.302H135.615ZM135.615 129.475L135.744 129.958L136.115 129.859V129.475H135.615ZM124.84 129.558H124.34V129.959L124.731 130.046L124.84 129.558ZM124.84 128.452V127.952H124.34V128.452H124.84ZM124.841 128.452V128.952H125.341V128.452H124.841ZM124.841 104.172H125.341V103.672H124.841V104.172ZM118.997 104.172H118.497V104.672H118.997V104.172ZM118.997 95.7955V95.2955H118.497V95.7955H118.997ZM124.841 95.7955V96.2955H125.341V95.7955H124.841ZM143.932 79.0422H144.432V78.5422H143.932V79.0422ZM143.932 87.4189V87.9189H144.432V87.4189H143.932ZM136.121 95.7955V90.8088H135.121V95.7955H136.121ZM143.932 95.2955H135.621V96.2955H143.932V95.2955ZM143.442 104.231L144.429 95.854L143.436 95.737L142.449 104.114L143.442 104.231ZM135.621 104.672H142.945V103.672H135.621V104.672ZM136.121 129.302V104.172H135.121V129.302H136.121ZM135.615 129.802H135.621V128.802H135.615V129.802ZM135.115 129.302V129.475H136.115V129.302H135.115ZM135.486 128.992C134.131 129.354 132.063 129.502 130.022 129.492C127.984 129.481 126.041 129.313 124.948 129.07L124.731 130.046C125.926 130.312 127.95 130.481 130.017 130.492C132.081 130.503 134.257 130.355 135.744 129.958L135.486 128.992ZM125.34 129.558V128.452H124.34V129.558H125.34ZM124.84 128.952H124.841V127.952H124.84V128.952ZM124.341 104.172V128.452H125.341V104.172H124.341ZM118.997 104.672H124.841V103.672H118.997V104.672ZM118.497 95.7955V104.172H119.497V95.7955H118.497ZM124.841 95.2955H118.997V96.2955H124.841V95.2955ZM124.341 90.2067V95.7955H125.341V90.2067H124.341ZM136.673 78.5422C132.159 78.5422 129.041 79.584 127.062 81.6314C125.085 83.6761 124.341 86.6234 124.341 90.2067H125.341C125.341 86.7353 126.066 84.1004 127.78 82.3265C129.493 80.5553 132.291 79.5422 136.673 79.5422V78.5422ZM143.932 78.5422H136.673V79.5422H143.932V78.5422ZM144.432 87.4189V79.0422H143.432V87.4189H144.432ZM139.582 87.9189H143.932V86.9189H139.582V87.9189ZM136.121 90.8088C136.121 89.6814 136.256 89.0284 136.657 88.6202C137.062 88.2086 137.867 87.9189 139.582 87.9189V86.9189C137.829 86.9189 136.653 87.1985 135.944 87.919C135.232 88.643 135.121 89.6849 135.121 90.8088H136.121Z" fill="url(#paint3_linear_3_282)" mask="url(#path-5-inside-1_3_282)"/>
</g>
<defs>
<filter id="filter0_d_3_282" x="0" y="0" width="260" height="260" filterUnits="userSpaceOnUse" color-interpolation-filters="sRGB">
<feFlood flood-opacity="0" result="BackgroundImageFix"/>
<feColorMatrix in="SourceAlpha" type="matrix" values="0 0 0 0 0 0 0 0 0 0 0 0 0 0 0 0 0 0 127 0" result="hardAlpha"/>
<feOffset dy="30"/>
<feGaussianBlur stdDeviation="50"/>
<feComposite in2="hardAlpha" operator="out"/>
<feColorMatrix type="matrix" values="0 0 0 0 0 0 0 0 0 0 0 0 0 0 0 0 0 0 0.15 0"/>
<feBlend mode="normal" in2="BackgroundImageFix" result="effect1_dropShadow_3_282"/>
<feBlend mode="normal" in="SourceGraphic" in2="effect1_dropShadow_3_282" result="shape"/>
</filter>
<filter id="filter1_f_3_282" x="98.7793" y="68.7792" width="62.4417" height="62.4415" filterUnits="userSpaceOnUse" color-interpolation-filters="sRGB">
<feFlood flood-opacity="0" result="BackgroundImageFix"/>
<feBlend mode="normal" in="SourceGraphic" in2="BackgroundImageFix" result="shape"/>
<feGaussianBlur stdDeviation="1" result="effect1_foregroundBlur_3_282"/>
</filter>
<filter id="filter2_f_3_282" x="110.88" y="74.8214" width="36.4934" height="57.9221" filterUnits="userSpaceOnUse" color-interpolation-filters="sRGB">
<feFlood flood-opacity="0" result="BackgroundImageFix"/>
<feBlend mode="normal" in="SourceGraphic" in2="BackgroundImageFix" result="shape"/>
<feGaussianBlur stdDeviation="2.5" result="effect1_foregroundBlur_3_282"/>
</filter>
<linearGradient id="paint0_linear_3_282" x1="128.831" y1="128.442" x2="130" y2="73.3117" gradientUnits="userSpaceOnUse">
<stop stop-color="#004DAE"/>
<stop offset="0.869762" stop-color="#4497FF"/>
</linearGradient>
<linearGradient id="paint1_linear_3_282" x1="130" y1="77.2077" x2="130" y2="122.792" gradientUnits="userSpaceOnUse">
<stop stop-color="#1778F2"/>
<stop offset="1" stop-color="#1778F2" stop-opacity="0.62"/>
</linearGradient>
<linearGradient id="paint2_linear_3_282" x1="130" y1="70.7792" x2="130" y2="129.221" gradientUnits="userSpaceOnUse">
<stop stop-color="#7CB4FB"/>
<stop offset="1" stop-color="#0B6280"/>
</linearGradient>
<linearGradient id="paint3_linear_3_282" x1="131.465" y1="79.0422" x2="131.465" y2="129.992" gradientUnits="userSpaceOnUse">
<stop stop-color="white"/>
<stop offset="1" stop-color="white" stop-opacity="0"/>
</linearGradient>
</defs>
</svg>
