<svg width="260" height="260" viewBox="0 0 260 260" fill="none" xmlns="http://www.w3.org/2000/svg">
<g filter="url(#filter0_d_3_290)">
<rect x="100" y="70" width="60" height="60" rx="30" fill="url(#paint0_linear_3_290)"/>
<g filter="url(#filter1_f_3_290)">
<rect x="100.779" y="70.7792" width="58.4416" height="58.4416" rx="29.2208" fill="url(#paint1_linear_3_290)"/>
<rect x="101.029" y="71.0292" width="57.9416" height="57.9416" rx="28.9708" stroke="url(#paint2_linear_3_290)" stroke-width="0.5"/>
</g>
<g filter="url(#filter2_f_3_290)">
<path fill-rule="evenodd" clip-rule="evenodd" d="M119.48 88.1168C119.48 90.161 117.736 91.8181 115.584 91.8181C113.433 91.8181 111.688 90.161 111.688 88.1168C111.688 86.0727 113.433 84.4155 115.584 84.4155C117.736 84.4155 119.48 86.0727 119.48 88.1168ZM111.688 117.922H118.868V93.7662H111.688V117.922ZM138.015 117.922H145.195V104.281C145.195 101.018 144.436 98.694 142.911 96.962C141.397 95.2324 139.412 94.544 136.959 94.544C133.733 94.544 131.38 96.1818 129.909 98.5973H129.76L129.322 93.7662H123.655C123.751 96.1818 123.655 117.922 123.655 117.922H130.835V102.796C131.428 100.919 132.611 99.9815 134.475 99.9815C136.828 99.9815 138.015 101.655 138.015 105.018V117.922Z" fill="#0B4C8C"/>
</g>
<mask id="path-5-inside-1_3_290" fill="white">
<path fill-rule="evenodd" clip-rule="evenodd" d="M122.597 86.1688C122.597 88.213 120.853 89.8701 118.701 89.8701C116.55 89.8701 114.805 88.213 114.805 86.1688C114.805 84.1247 116.55 82.4675 118.701 82.4675C120.853 82.4675 122.597 84.1247 122.597 86.1688ZM114.805 115.974H121.985V91.8182H114.805V115.974ZM141.132 115.974H148.312V102.333C148.312 99.0698 147.553 96.746 146.028 95.014C144.513 93.2844 142.529 92.596 140.076 92.596C136.85 92.596 134.497 94.2338 133.026 96.6493H132.877L132.439 91.8182H126.772C126.868 94.2338 126.772 115.974 126.772 115.974H133.952V100.848C134.545 98.9707 135.728 98.0335 137.592 98.0335C139.945 98.0335 141.132 99.7075 141.132 103.07V115.974Z"/>
</mask>
<path fill-rule="evenodd" clip-rule="evenodd" d="M122.597 86.1688C122.597 88.213 120.853 89.8701 118.701 89.8701C116.55 89.8701 114.805 88.213 114.805 86.1688C114.805 84.1247 116.55 82.4675 118.701 82.4675C120.853 82.4675 122.597 84.1247 122.597 86.1688ZM114.805 115.974H121.985V91.8182H114.805V115.974ZM141.132 115.974H148.312V102.333C148.312 99.0698 147.553 96.746 146.028 95.014C144.513 93.2844 142.529 92.596 140.076 92.596C136.85 92.596 134.497 94.2338 133.026 96.6493H132.877L132.439 91.8182H126.772C126.868 94.2338 126.772 115.974 126.772 115.974H133.952V100.848C134.545 98.9707 135.728 98.0335 137.592 98.0335C139.945 98.0335 141.132 99.7075 141.132 103.07V115.974Z" fill="white" fill-opacity="0.9"/>
<path d="M121.985 115.974V116.474H122.485V115.974H121.985ZM114.805 115.974H114.305V116.474H114.805V115.974ZM121.985 91.8182H122.485V91.3182H121.985V91.8182ZM114.805 91.8182V91.3182H114.305V91.8182H114.805ZM148.312 115.974V116.474H148.812V115.974H148.312ZM141.132 115.974H140.632V116.474H141.132V115.974ZM146.028 95.014L145.652 95.3434L145.653 95.3444L146.028 95.014ZM133.026 96.6493V97.1493H133.306L133.453 96.9095L133.026 96.6493ZM132.877 96.6493L132.379 96.6945L132.42 97.1493H132.877V96.6493ZM132.439 91.8182L132.937 91.773L132.896 91.3182H132.439V91.8182ZM126.772 91.8182V91.3182H126.252L126.272 91.838L126.772 91.8182ZM126.772 115.974L126.272 115.972L126.27 116.474H126.772V115.974ZM133.952 115.974V116.474H134.452V115.974H133.952ZM133.952 100.848L133.475 100.697L133.452 100.77V100.848H133.952ZM118.701 90.3701C121.105 90.3701 123.097 88.513 123.097 86.1688H122.097C122.097 87.913 120.601 89.3701 118.701 89.3701V90.3701ZM114.305 86.1688C114.305 88.513 116.298 90.3701 118.701 90.3701V89.3701C116.801 89.3701 115.305 87.913 115.305 86.1688H114.305ZM118.701 81.9675C116.298 81.9675 114.305 83.8247 114.305 86.1688H115.305C115.305 84.4247 116.801 82.9675 118.701 82.9675V81.9675ZM123.097 86.1688C123.097 83.8247 121.105 81.9675 118.701 81.9675V82.9675C120.601 82.9675 122.097 84.4247 122.097 86.1688H123.097ZM121.985 115.474H114.805V116.474H121.985V115.474ZM121.485 91.8182V115.974H122.485V91.8182H121.485ZM114.805 92.3182H121.985V91.3182H114.805V92.3182ZM115.305 115.974V91.8182H114.305V115.974H115.305ZM148.312 115.474H141.132V116.474H148.312V115.474ZM147.812 102.333V115.974H148.812V102.333H147.812ZM145.653 95.3444C147.073 96.9576 147.812 99.1491 147.812 102.333H148.812C148.812 98.9904 148.033 96.5343 146.404 94.6836L145.653 95.3444ZM140.076 93.096C142.426 93.096 144.256 93.7496 145.652 95.3434L146.405 94.6845C144.771 92.8193 142.633 92.096 140.076 92.096V93.096ZM133.453 96.9095C134.847 94.6211 137.049 93.096 140.076 93.096V92.096C136.652 92.096 134.148 93.8465 132.599 96.3892L133.453 96.9095ZM132.877 97.1493H133.026V96.1493H132.877V97.1493ZM131.941 91.8633L132.379 96.6945L133.375 96.6042L132.937 91.773L131.941 91.8633ZM126.772 92.3182H132.439V91.3182H126.772V92.3182ZM126.772 115.974C127.272 115.976 127.272 115.976 127.272 115.976C127.272 115.976 127.272 115.976 127.272 115.975C127.272 115.975 127.272 115.974 127.272 115.972C127.272 115.97 127.272 115.966 127.272 115.96C127.272 115.95 127.272 115.934 127.272 115.914C127.272 115.873 127.272 115.811 127.273 115.731C127.274 115.572 127.274 115.337 127.276 115.037C127.278 114.438 127.281 113.579 127.285 112.541C127.293 110.465 127.302 107.672 127.308 104.803C127.32 99.0748 127.32 93.0198 127.271 91.7984L126.272 91.838C126.319 93.0321 126.32 99.055 126.308 104.801C126.302 107.669 126.293 110.462 126.285 112.538C126.282 113.575 126.278 114.434 126.276 115.033C126.274 115.333 126.274 115.567 126.273 115.727C126.272 115.807 126.272 115.868 126.272 115.909C126.272 115.93 126.272 115.946 126.272 115.956C126.272 115.961 126.272 115.965 126.272 115.968C126.272 115.969 126.272 115.97 126.272 115.971C126.272 115.971 126.272 115.971 126.272 115.972C126.272 115.972 126.272 115.972 126.772 115.974ZM133.952 115.474H126.772V116.474H133.952V115.474ZM133.452 100.848V115.974H134.452V100.848H133.452ZM137.592 97.5335C136.573 97.5335 135.696 97.7912 134.988 98.3421C134.284 98.89 133.793 99.6917 133.475 100.697L134.428 100.998C134.704 100.127 135.101 99.5212 135.602 99.1314C136.1 98.7444 136.747 98.5335 137.592 98.5335V97.5335ZM141.632 103.07C141.632 101.345 141.33 99.9641 140.653 99.0029C139.953 98.0097 138.903 97.5335 137.592 97.5335V98.5335C138.634 98.5335 139.353 98.8943 139.835 99.5787C140.34 100.295 140.632 101.432 140.632 103.07H141.632ZM141.632 115.974V103.07H140.632V115.974H141.632Z" fill="url(#paint3_linear_3_290)" mask="url(#path-5-inside-1_3_290)"/>
</g>
<defs>
<filter id="filter0_d_3_290" x="0" y="0" width="260" height="260" filterUnits="userSpaceOnUse" color-interpolation-filters="sRGB">
<feFlood flood-opacity="0" result="BackgroundImageFix"/>
<feColorMatrix in="SourceAlpha" type="matrix" values="0 0 0 0 0 0 0 0 0 0 0 0 0 0 0 0 0 0 127 0" result="hardAlpha"/>
<feOffset dy="30"/>
<feGaussianBlur stdDeviation="50"/>
<feComposite in2="hardAlpha" operator="out"/>
<feColorMatrix type="matrix" values="0 0 0 0 0 0 0 0 0 0 0 0 0 0 0 0 0 0 0.15 0"/>
<feBlend mode="normal" in2="BackgroundImageFix" result="effect1_dropShadow_3_290"/>
<feBlend mode="normal" in="SourceGraphic" in2="effect1_dropShadow_3_290" result="shape"/>
</filter>
<filter id="filter1_f_3_290" x="95.7793" y="65.7792" width="68.4417" height="68.4415" filterUnits="userSpaceOnUse" color-interpolation-filters="sRGB">
<feFlood flood-opacity="0" result="BackgroundImageFix"/>
<feBlend mode="normal" in="SourceGraphic" in2="BackgroundImageFix" result="shape"/>
<feGaussianBlur stdDeviation="2.5" result="effect1_foregroundBlur_3_290"/>
</filter>
<filter id="filter2_f_3_290" x="101.688" y="74.4155" width="53.5066" height="53.5065" filterUnits="userSpaceOnUse" color-interpolation-filters="sRGB">
<feFlood flood-opacity="0" result="BackgroundImageFix"/>
<feBlend mode="normal" in="SourceGraphic" in2="BackgroundImageFix" result="shape"/>
<feGaussianBlur stdDeviation="5" result="effect1_foregroundBlur_3_290"/>
</filter>
<linearGradient id="paint0_linear_3_290" x1="128.831" y1="128.442" x2="130" y2="73.3117" gradientUnits="userSpaceOnUse">
<stop stop-color="#004081"/>
<stop offset="1" stop-color="#5BA9F8"/>
</linearGradient>
<linearGradient id="paint1_linear_3_290" x1="130" y1="77.2077" x2="130" y2="122.792" gradientUnits="userSpaceOnUse">
<stop stop-color="#0A66C2" stop-opacity="0.56"/>
<stop offset="1" stop-color="#0A66C2"/>
</linearGradient>
<linearGradient id="paint2_linear_3_290" x1="130" y1="70.7792" x2="130" y2="129.221" gradientUnits="userSpaceOnUse">
<stop stop-color="#59ACFF"/>
<stop offset="1" stop-color="#013162"/>
</linearGradient>
<linearGradient id="paint3_linear_3_290" x1="131.558" y1="82.4675" x2="131.558" y2="115.974" gradientUnits="userSpaceOnUse">
<stop stop-color="white"/>
<stop offset="1" stop-color="white" stop-opacity="0"/>
</linearGradient>
</defs>
</svg>
