<svg width="45" height="44" viewBox="0 0 45 44" fill="none" xmlns="http://www.w3.org/2000/svg">
<g clip-path="url(#clip0_107_562)">
<path d="M40.5002 7.35169C38.6668 8.25002 36.8702 8.61486 35.0002 9.16669C32.945 6.84752 29.898 6.71919 26.9702 7.81552C24.0423 8.91186 22.1247 11.5922 22.1668 14.6667V16.5C16.2177 16.6522 10.9193 13.9425 7.50016 9.16669C7.50016 9.16669 -0.166838 22.7939 14.8335 29.3334C11.4015 31.6195 7.97866 33.1614 3.8335 33C9.89816 36.3055 16.5073 37.4422 22.2292 35.7812C28.7925 33.8745 34.1862 28.9557 36.256 21.5875C36.8734 19.3466 37.18 17.0314 37.1672 14.707C37.1635 14.2505 39.9355 9.62502 40.5002 7.34986V7.35169Z" fill="#0F172A" stroke="#CBD5E1" stroke-width="2.75" stroke-linecap="round" stroke-linejoin="round"/>
</g>
<defs>
<clipPath id="clip0_107_562">
<rect width="44" height="44" fill="white" transform="translate(0.166748)"/>
</clipPath>
</defs>
</svg>
