<svg width="260" height="260" viewBox="0 0 260 260" fill="none" xmlns="http://www.w3.org/2000/svg">
<g filter="url(#filter0_d_3_300)">
<rect x="100" y="70" width="60" height="60" rx="30" fill="url(#paint0_linear_3_300)"/>
<g filter="url(#filter1_f_3_300)">
<rect x="100.779" y="70.7792" width="58.4416" height="58.4416" rx="29.2208" fill="url(#paint1_linear_3_300)"/>
<rect x="101.029" y="71.0292" width="57.9416" height="57.9416" rx="28.9708" stroke="url(#paint2_linear_3_300)" stroke-width="0.5"/>
</g>
<g filter="url(#filter2_f_3_300)">
<path d="M144.844 92.9846C144.436 91.4519 143.235 90.245 141.709 89.8354C138.944 89.0909 127.857 89.0909 127.857 89.0909C127.857 89.0909 116.77 89.0909 114.005 89.8354C112.48 90.245 111.278 91.4519 110.871 92.9846C110.13 95.7625 110.13 101.559 110.13 101.559C110.13 101.559 110.13 107.355 110.871 110.132C111.278 111.665 112.48 112.872 114.005 113.282C116.77 114.026 127.857 114.026 127.857 114.026C127.857 114.026 138.944 114.026 141.709 113.282C143.235 112.872 144.436 111.665 144.844 110.132C145.584 107.355 145.584 101.559 145.584 101.559C145.584 101.559 145.584 95.7625 144.844 92.9846ZM124.312 106.902V96.2153L133.523 101.559L124.312 106.902Z" fill="#9B0000"/>
</g>
<path d="M146.55 91.4904L146.55 91.4905C146.913 92.8512 147.098 94.9706 147.19 96.7678C147.236 97.6626 147.259 98.4712 147.271 99.0561C147.277 99.3485 147.28 99.5848 147.281 99.7479C147.282 99.8295 147.282 99.8927 147.282 99.9355L147.282 99.984L147.282 99.9963L147.282 99.9993V100V100L147.532 100L147.282 100V100V100.001L147.282 100.004L147.282 100.016L147.282 100.065C147.282 100.108 147.282 100.171 147.281 100.252C147.28 100.416 147.277 100.652 147.271 100.944C147.259 101.529 147.236 102.338 147.19 103.233C147.098 105.03 146.913 107.149 146.55 108.509L146.55 108.51C146.165 109.956 145.031 111.096 143.592 111.482L143.592 111.482C142.927 111.661 141.738 111.799 140.308 111.904C138.885 112.009 137.244 112.078 135.687 112.125C134.13 112.171 132.66 112.194 131.578 112.206C131.037 112.212 130.594 112.215 130.286 112.216C130.132 112.217 130.012 112.217 129.93 112.217L129.837 112.218L129.813 112.218L129.807 112.218H129.806H129.805C129.805 112.218 129.805 112.218 129.805 112.468C129.805 112.218 129.805 112.218 129.805 112.218H129.805H129.803L129.797 112.218L129.774 112.218L129.681 112.217C129.599 112.217 129.479 112.217 129.325 112.216C129.016 112.215 128.573 112.212 128.032 112.206C126.951 112.194 125.48 112.171 123.924 112.125C122.366 112.078 120.725 112.009 119.302 111.904C117.872 111.799 116.683 111.661 116.018 111.482L116.018 111.482C114.579 111.096 113.445 109.956 113.06 108.51L113.06 108.509C112.697 107.149 112.513 105.03 112.42 103.233C112.374 102.338 112.351 101.529 112.339 100.944C112.334 100.652 112.331 100.416 112.329 100.252C112.329 100.171 112.328 100.108 112.328 100.065L112.328 100.016L112.328 100.004L112.328 100.001L112.328 100L112.328 100L112.078 100L112.328 100L112.328 100L112.328 99.9993L112.328 99.9963L112.328 99.984L112.328 99.9355C112.328 99.8927 112.329 99.8295 112.329 99.7479C112.331 99.5848 112.334 99.3485 112.339 99.0561C112.351 98.4712 112.374 97.6626 112.42 96.7678C112.513 94.9706 112.697 92.8512 113.06 91.4906L113.06 91.4904C113.445 90.0437 114.579 88.9047 116.018 88.5183L116.018 88.5183C116.683 88.3392 117.872 88.2007 119.302 88.0959C120.725 87.9915 122.366 87.9219 123.924 87.8754C125.48 87.8289 126.951 87.8057 128.032 87.7941C128.573 87.7883 129.016 87.7854 129.325 87.7839C129.479 87.7832 129.599 87.7828 129.681 87.7827L129.774 87.7825L129.797 87.7825L129.803 87.7825L129.805 87.7825L129.805 87.7825C129.805 87.7825 129.805 87.7825 129.805 87.5325C129.805 87.7825 129.805 87.7825 129.805 87.7825L129.806 87.7825L129.807 87.7825L129.813 87.7825L129.837 87.7825L129.93 87.7827C130.012 87.7828 130.132 87.7832 130.286 87.7839C130.594 87.7854 131.037 87.7883 131.578 87.7941C132.66 87.8057 134.13 87.8289 135.687 87.8754C137.244 87.9219 138.885 87.9915 140.308 88.0959C141.738 88.2007 142.927 88.3392 143.592 88.5183L143.592 88.5184C145.031 88.9047 146.165 90.0437 146.55 91.4904ZM126.01 105.344V105.778L126.385 105.56L135.596 100.216L135.969 100L135.596 99.784L126.385 94.4406L126.01 94.2228V94.6568V105.344Z" fill="white" fill-opacity="0.9" stroke="url(#paint3_linear_3_300)" stroke-width="0.5"/>
</g>
<defs>
<filter id="filter0_d_3_300" x="0" y="0" width="260" height="260" filterUnits="userSpaceOnUse" color-interpolation-filters="sRGB">
<feFlood flood-opacity="0" result="BackgroundImageFix"/>
<feColorMatrix in="SourceAlpha" type="matrix" values="0 0 0 0 0 0 0 0 0 0 0 0 0 0 0 0 0 0 127 0" result="hardAlpha"/>
<feOffset dy="30"/>
<feGaussianBlur stdDeviation="50"/>
<feComposite in2="hardAlpha" operator="out"/>
<feColorMatrix type="matrix" values="0 0 0 0 0 0 0 0 0 0 0 0 0 0 0 0 0 0 0.15 0"/>
<feBlend mode="normal" in2="BackgroundImageFix" result="effect1_dropShadow_3_300"/>
<feBlend mode="normal" in="SourceGraphic" in2="effect1_dropShadow_3_300" result="shape"/>
</filter>
<filter id="filter1_f_3_300" x="95.7793" y="65.7792" width="68.4417" height="68.4415" filterUnits="userSpaceOnUse" color-interpolation-filters="sRGB">
<feFlood flood-opacity="0" result="BackgroundImageFix"/>
<feBlend mode="normal" in="SourceGraphic" in2="BackgroundImageFix" result="shape"/>
<feGaussianBlur stdDeviation="2.5" result="effect1_foregroundBlur_3_300"/>
</filter>
<filter id="filter2_f_3_300" x="100.13" y="79.0909" width="55.4546" height="44.9351" filterUnits="userSpaceOnUse" color-interpolation-filters="sRGB">
<feFlood flood-opacity="0" result="BackgroundImageFix"/>
<feBlend mode="normal" in="SourceGraphic" in2="BackgroundImageFix" result="shape"/>
<feGaussianBlur stdDeviation="5" result="effect1_foregroundBlur_3_300"/>
</filter>
<linearGradient id="paint0_linear_3_300" x1="128.831" y1="128.442" x2="130" y2="73.3117" gradientUnits="userSpaceOnUse">
<stop stop-color="#A70000"/>
<stop offset="1" stop-color="#FF9191"/>
</linearGradient>
<linearGradient id="paint1_linear_3_300" x1="130" y1="77.2077" x2="130" y2="122.792" gradientUnits="userSpaceOnUse">
<stop stop-color="#FF0000" stop-opacity="0.67"/>
<stop offset="1" stop-color="#FF0000"/>
</linearGradient>
<linearGradient id="paint2_linear_3_300" x1="130" y1="70.7792" x2="130" y2="129.221" gradientUnits="userSpaceOnUse">
<stop stop-color="#FF8888"/>
<stop offset="1" stop-color="#D60000"/>
</linearGradient>
<linearGradient id="paint3_linear_3_300" x1="129.805" y1="87.5325" x2="129.805" y2="112.468" gradientUnits="userSpaceOnUse">
<stop stop-color="white"/>
<stop offset="1" stop-color="white" stop-opacity="0"/>
</linearGradient>
</defs>
</svg>
