<svg width="698" height="180" viewBox="0 0 698 180" fill="none" xmlns="http://www.w3.org/2000/svg">
<path d="M65 36C65 19.4315 51.5685 6 35 6C18.4315 6 5 19.4315 5 36C5 52.5685 18.4315 66 35 66C51.5685 66 65 52.5685 65 36Z" fill="url(#paint0_linear_27_7)"/>
<g filter="url(#filter0_f_27_7)">
<path d="M64.2206 36C64.2206 19.8618 51.138 6.77917 34.9998 6.77917C18.8616 6.77917 5.77899 19.8618 5.77899 36C5.77899 52.1382 18.8616 65.2208 34.9998 65.2208C51.138 65.2208 64.2206 52.1382 64.2206 36Z" fill="url(#paint1_linear_27_7)"/>
<path d="M63.9706 36C63.9706 19.9998 50.9999 7.02917 34.9998 7.02917C18.9997 7.02917 6.02899 19.9998 6.02899 36C6.02899 52.0001 18.9997 64.9708 34.9998 64.9708C50.9999 64.9708 63.9706 52.0001 63.9706 36Z" stroke="url(#paint2_linear_27_7)" stroke-width="0.5"/>
</g>
<g filter="url(#filter1_f_27_7)">
<path d="M49.844 28.9846C49.436 27.4519 48.235 26.245 46.709 25.8354C43.944 25.0909 32.857 25.0909 32.857 25.0909C32.857 25.0909 21.77 25.0909 19.005 25.8354C17.48 26.245 16.278 27.4519 15.871 28.9846C15.13 31.7625 15.13 37.559 15.13 37.559C15.13 37.559 15.13 43.355 15.871 46.132C16.278 47.665 17.48 48.872 19.005 49.282C21.77 50.026 32.857 50.026 32.857 50.026C32.857 50.026 43.944 50.026 46.709 49.282C48.235 48.872 49.436 47.665 49.844 46.132C50.584 43.355 50.584 37.559 50.584 37.559C50.584 37.559 50.584 31.7625 49.844 28.9846ZM29.312 42.902V32.2153L38.523 37.559L29.312 42.902Z" fill="#9B0000"/>
</g>
<path d="M51.55 27.4904C51.913 28.8511 52.098 30.9706 52.19 32.7678C52.236 33.6626 52.259 34.4712 52.271 35.0561C52.277 35.3485 52.28 35.5848 52.281 35.7479C52.282 35.8295 52.282 35.8927 52.282 35.9355V35.984V35.9963V35.9993V36.001V36.004V36.016V36.065C52.282 36.108 52.282 36.171 52.281 36.252C52.28 36.416 52.277 36.652 52.271 36.944C52.259 37.529 52.236 38.338 52.19 39.233C52.098 41.03 51.913 43.149 51.55 44.509C51.165 45.955 50.031 47.096 48.592 47.482C47.927 47.661 46.738 47.799 45.308 47.904C43.885 48.009 42.244 48.078 40.687 48.125C39.13 48.171 37.66 48.194 36.578 48.206C36.037 48.212 35.594 48.215 35.286 48.216C35.132 48.217 35.012 48.217 34.93 48.217L34.837 48.218H34.813H34.807H34.806H34.805H34.803H34.797H34.774L34.681 48.217C34.599 48.217 34.479 48.217 34.325 48.216C34.016 48.215 33.573 48.212 33.032 48.206C31.951 48.194 30.48 48.171 28.924 48.125C27.366 48.078 25.725 48.009 24.302 47.904C22.872 47.799 21.683 47.661 21.018 47.482C19.579 47.096 18.445 45.956 18.06 44.51C17.697 43.15 17.513 41.03 17.42 39.233C17.374 38.338 17.351 37.529 17.339 36.944C17.334 36.652 17.331 36.416 17.329 36.252C17.329 36.171 17.328 36.108 17.328 36.065V36.016V36.004V36.001V35.9993V35.9963V35.984V35.9355C17.328 35.8927 17.329 35.8295 17.329 35.7479C17.331 35.5848 17.334 35.3485 17.339 35.0561C17.351 34.4712 17.374 33.6626 17.42 32.7678C17.513 30.9706 17.697 28.8512 18.06 27.4906C18.445 26.0439 19.579 24.9047 21.018 24.5183C21.683 24.3392 22.872 24.2007 24.302 24.0959C25.725 23.9915 27.366 23.9219 28.924 23.8754C30.48 23.8289 31.951 23.8057 33.032 23.7941C33.573 23.7883 34.016 23.7854 34.325 23.7839C34.479 23.7832 34.599 23.7828 34.681 23.7827L34.774 23.7825H34.797H34.803H34.805H34.806H34.807H34.813H34.837L34.93 23.7827C35.012 23.7828 35.132 23.7832 35.286 23.7839C35.594 23.7854 36.037 23.7883 36.578 23.7941C37.66 23.8057 39.13 23.8289 40.687 23.8754C42.244 23.9219 43.885 23.9915 45.308 24.0959C46.738 24.2007 47.927 24.3392 48.592 24.5183C50.031 24.9046 51.165 26.0437 51.55 27.4904ZM31.01 41.344V41.778L31.385 41.56L40.596 36.216L40.969 36L40.596 35.784L31.385 30.4406L31.01 30.2228V30.6568V41.344Z" fill="white" fill-opacity="0.9"/>
<path d="M52.282 35.9993V35.9963V35.984V35.9355C52.282 35.8927 52.282 35.8295 52.281 35.7479C52.28 35.5848 52.277 35.3485 52.271 35.0561C52.259 34.4712 52.236 33.6626 52.19 32.7678C52.098 30.9706 51.913 28.8511 51.55 27.4904C51.165 26.0437 50.031 24.9046 48.592 24.5183C47.927 24.3392 46.738 24.2007 45.308 24.0959C43.885 23.9915 42.244 23.9219 40.687 23.8754C39.13 23.8289 37.66 23.8057 36.578 23.7941C36.037 23.7883 35.594 23.7854 35.286 23.7839C35.132 23.7832 35.012 23.7828 34.93 23.7827L34.837 23.7825H34.813H34.807H34.806H34.805M52.282 35.9993L52.532 36M52.282 35.9993V36.001V36.004V36.016V36.065C52.282 36.108 52.282 36.171 52.281 36.252C52.28 36.416 52.277 36.652 52.271 36.944C52.259 37.529 52.236 38.338 52.19 39.233C52.098 41.03 51.913 43.149 51.55 44.509C51.165 45.955 50.031 47.096 48.592 47.482C47.927 47.661 46.738 47.799 45.308 47.904C43.885 48.009 42.244 48.078 40.687 48.125C39.13 48.171 37.66 48.194 36.578 48.206C36.037 48.212 35.594 48.215 35.286 48.216C35.132 48.217 35.012 48.217 34.93 48.217L34.837 48.218H34.813H34.807H34.806H34.805M34.805 48.218C34.805 48.218 34.805 48.218 34.805 48.468M34.805 48.218H34.803H34.797H34.774L34.681 48.217C34.599 48.217 34.479 48.217 34.325 48.216C34.016 48.215 33.573 48.212 33.032 48.206C31.951 48.194 30.48 48.171 28.924 48.125C27.366 48.078 25.725 48.009 24.302 47.904C22.872 47.799 21.683 47.661 21.018 47.482C19.579 47.096 18.445 45.956 18.06 44.51C17.697 43.15 17.513 41.03 17.42 39.233C17.374 38.338 17.351 37.529 17.339 36.944C17.334 36.652 17.331 36.416 17.329 36.252C17.329 36.171 17.328 36.108 17.328 36.065V36.016V36.004V36.001M17.328 36.001L17.078 36M17.328 36.001V35.9993V35.9963V35.984V35.9355C17.328 35.8927 17.329 35.8295 17.329 35.7479C17.331 35.5848 17.334 35.3485 17.339 35.0561C17.351 34.4712 17.374 33.6626 17.42 32.7678C17.513 30.9706 17.697 28.8512 18.06 27.4906C18.445 26.0439 19.579 24.9047 21.018 24.5183C21.683 24.3392 22.872 24.2007 24.302 24.0959C25.725 23.9915 27.366 23.9219 28.924 23.8754C30.48 23.8289 31.951 23.8057 33.032 23.7941C33.573 23.7883 34.016 23.7854 34.325 23.7839C34.479 23.7832 34.599 23.7828 34.681 23.7827L34.774 23.7825H34.797H34.803H34.805M34.805 23.7825C34.805 23.7825 34.805 23.7825 34.805 23.5325M31.01 41.344V41.778L31.385 41.56L40.596 36.216L40.969 36L40.596 35.784L31.385 30.4406L31.01 30.2228V30.6568V41.344Z" stroke="url(#paint3_linear_27_7)" stroke-width="0.5"/>
<path d="M48 160C48 151.716 41.2843 145 33 145C24.7157 145 18 151.716 18 160C18 168.284 24.7157 175 33 175C41.2843 175 48 168.284 48 160Z" fill="url(#paint4_linear_27_7)"/>
<g filter="url(#filter2_f_27_7)">
<path d="M47.6103 160C47.6103 151.931 41.069 145.39 32.9999 145.39C24.9308 145.39 18.3895 151.931 18.3895 160C18.3895 168.069 24.9308 174.61 32.9999 174.61C41.069 174.61 47.6103 168.069 47.6103 160Z" fill="url(#paint5_linear_27_7)"/>
<path d="M47.4853 160C47.4853 152 41 145.515 32.9999 145.515C24.9999 145.515 18.5145 152 18.5145 160C18.5145 168 24.9999 174.485 32.9999 174.485C41 174.485 47.4853 168 47.4853 160Z" stroke="url(#paint6_linear_27_7)" stroke-width="0.5"/>
</g>
<g filter="url(#filter3_f_27_7)">
<path d="M40.422 156.492C40.218 155.726 39.6175 155.122 38.8545 154.918C37.472 154.545 31.9285 154.545 31.9285 154.545C31.9285 154.545 26.385 154.545 25.0025 154.918C24.24 155.122 23.639 155.726 23.4355 156.492C23.065 157.881 23.065 160.779 23.065 160.779C23.065 160.779 23.065 163.677 23.4355 165.066C23.639 165.832 24.24 166.436 25.0025 166.641C26.385 167.013 31.9285 167.013 31.9285 167.013C31.9285 167.013 37.472 167.013 38.8545 166.641C39.6175 166.436 40.218 165.832 40.422 165.066C40.792 163.677 40.792 160.779 40.792 160.779C40.792 160.779 40.792 157.881 40.422 156.492ZM30.156 163.451V158.108L34.7615 160.779L30.156 163.451Z" fill="#9B0000"/>
</g>
<path d="M41.275 155.745C41.4565 156.426 41.549 157.485 41.595 158.384C41.618 158.831 41.6295 159.236 41.6355 159.528C41.6385 159.674 41.64 159.792 41.6405 159.874C41.641 159.915 41.641 159.946 41.641 159.968V159.992V159.998V160V160V160.002V160.008V160.032C41.641 160.054 41.641 160.085 41.6405 160.126C41.64 160.208 41.6385 160.326 41.6355 160.472C41.6295 160.764 41.618 161.169 41.595 161.616C41.549 162.515 41.4565 163.574 41.275 164.254C41.0825 164.977 40.5155 165.548 39.796 165.741C39.4635 165.83 38.869 165.899 38.154 165.952C37.4425 166.004 36.622 166.039 35.8435 166.062C35.065 166.085 34.33 166.097 33.789 166.103C33.5185 166.106 33.297 166.107 33.143 166.108C33.066 166.108 33.006 166.108 32.965 166.108L32.9185 166.109H32.9065H32.9035H32.903H32.9025H32.9015H32.8985H32.887L32.8405 166.108C32.7995 166.108 32.7395 166.108 32.6625 166.108C32.508 166.107 32.2865 166.106 32.016 166.103C31.4755 166.097 30.74 166.085 29.962 166.062C29.183 166.039 28.3625 166.004 27.651 165.952C26.936 165.899 26.3415 165.83 26.009 165.741C25.2895 165.548 24.7225 164.978 24.53 164.255C24.3485 163.575 24.2565 162.515 24.21 161.616C24.187 161.169 24.1755 160.764 24.1695 160.472C24.167 160.326 24.1655 160.208 24.1645 160.126C24.1645 160.085 24.164 160.054 24.164 160.032V160.008V160.002V160V160V159.998V159.992V159.968C24.164 159.946 24.1645 159.915 24.1645 159.874C24.1655 159.792 24.167 159.674 24.1695 159.528C24.1755 159.236 24.187 158.831 24.21 158.384C24.2565 157.485 24.3485 156.426 24.53 155.745C24.7225 155.022 25.2895 154.452 26.009 154.259C26.3415 154.17 26.936 154.1 27.651 154.048C28.3625 153.996 29.183 153.961 29.962 153.938C30.74 153.914 31.4755 153.903 32.016 153.897C32.2865 153.894 32.508 153.893 32.6625 153.892C32.7395 153.892 32.7995 153.891 32.8405 153.891L32.887 153.891H32.8985H32.9015H32.9025H32.903H32.9035H32.9065H32.9185L32.965 153.891C33.006 153.891 33.066 153.892 33.143 153.892C33.297 153.893 33.5185 153.894 33.789 153.897C34.33 153.903 35.065 153.914 35.8435 153.938C36.622 153.961 37.4425 153.996 38.154 154.048C38.869 154.1 39.4635 154.17 39.796 154.259C40.5155 154.452 41.0825 155.022 41.275 155.745ZM31.005 162.672V162.889L31.1925 162.78L35.798 160.108L35.9845 160L35.798 159.892L31.1925 157.22L31.005 157.111V157.328V162.672Z" fill="white" fill-opacity="0.9"/>
<path d="M41.641 160V159.998V159.992V159.968C41.641 159.946 41.641 159.915 41.6405 159.874C41.64 159.792 41.6385 159.674 41.6355 159.528C41.6295 159.236 41.618 158.831 41.595 158.384C41.549 157.485 41.4565 156.426 41.275 155.745C41.0825 155.022 40.5155 154.452 39.796 154.259C39.4635 154.17 38.869 154.1 38.154 154.048C37.4425 153.996 36.622 153.961 35.8435 153.938C35.065 153.914 34.33 153.903 33.789 153.897C33.5185 153.894 33.297 153.893 33.143 153.892C33.066 153.892 33.006 153.891 32.965 153.891L32.9185 153.891H32.9065H32.9035H32.903H32.9025M41.641 160L41.766 160M41.641 160V160V160.002V160.008V160.032C41.641 160.054 41.641 160.085 41.6405 160.126C41.64 160.208 41.6385 160.326 41.6355 160.472C41.6295 160.764 41.618 161.169 41.595 161.616C41.549 162.515 41.4565 163.574 41.275 164.254C41.0825 164.977 40.5155 165.548 39.796 165.741C39.4635 165.83 38.869 165.899 38.154 165.952C37.4425 166.004 36.622 166.039 35.8435 166.062C35.065 166.085 34.33 166.097 33.789 166.103C33.5185 166.106 33.297 166.107 33.143 166.108C33.066 166.108 33.006 166.108 32.965 166.108L32.9185 166.109H32.9065H32.9035H32.903H32.9025M32.9025 166.109C32.9025 166.109 32.9025 166.109 32.9025 166.234M32.9025 166.109H32.9015H32.8985H32.887L32.8405 166.108C32.7995 166.108 32.7395 166.108 32.6625 166.108C32.508 166.107 32.2865 166.106 32.016 166.103C31.4755 166.097 30.74 166.085 29.962 166.062C29.183 166.039 28.3625 166.004 27.651 165.952C26.936 165.899 26.3415 165.83 26.009 165.741C25.2895 165.548 24.7225 164.978 24.53 164.255C24.3485 163.575 24.2565 162.515 24.21 161.616C24.187 161.169 24.1755 160.764 24.1695 160.472C24.167 160.326 24.1655 160.208 24.1645 160.126C24.1645 160.085 24.164 160.054 24.164 160.032V160.008V160.002V160M24.164 160L24.039 160M24.164 160V160V159.998V159.992V159.968C24.164 159.946 24.1645 159.915 24.1645 159.874C24.1655 159.792 24.167 159.674 24.1695 159.528C24.1755 159.236 24.187 158.831 24.21 158.384C24.2565 157.485 24.3485 156.426 24.53 155.745C24.7225 155.022 25.2895 154.452 26.009 154.259C26.3415 154.17 26.936 154.1 27.651 154.048C28.3625 153.996 29.183 153.961 29.962 153.938C30.74 153.914 31.4755 153.903 32.016 153.897C32.2865 153.894 32.508 153.893 32.6625 153.892C32.7395 153.892 32.7995 153.891 32.8405 153.891L32.887 153.891H32.8985H32.9015H32.9025M32.9025 153.891C32.9025 153.891 32.9025 153.891 32.9025 153.766M31.005 162.672V162.889L31.1925 162.78L35.798 160.108L35.9845 160L35.798 159.892L31.1925 157.22L31.005 157.111V157.328V162.672Z" stroke="url(#paint7_linear_27_7)" stroke-width="0.5"/>
<path d="M65 105C65 88.4315 51.5685 75 35 75C18.4315 75 5 88.4315 5 105C5 121.569 18.4315 135 35 135C51.5685 135 65 121.569 65 105Z" fill="#F8FAFC"/>
<g filter="url(#filter4_f_27_7)">
<path d="M64.2206 105C64.2206 88.8618 51.138 75.7792 34.9998 75.7792C18.8616 75.7792 5.77899 88.8618 5.77899 105C5.77899 121.138 18.8616 134.221 34.9998 134.221C51.138 134.221 64.2206 121.138 64.2206 105Z" fill="#F8FAFC"/>
<path d="M63.9706 105C63.9706 88.9998 50.9999 76.0292 34.9998 76.0292C18.9997 76.0292 6.02899 88.9998 6.02899 105C6.02899 121 18.9997 133.971 34.9998 133.971C50.9999 133.971 63.9706 121 63.9706 105Z" fill="#F8FAFC" stroke="#F8FAFC" stroke-width="0.5"/>
</g>
<g filter="url(#filter5_f_27_7)">
<path d="M49.844 97.9846C49.436 96.4519 48.235 95.245 46.709 94.8354C43.944 94.0909 32.857 94.0909 32.857 94.0909C32.857 94.0909 21.77 94.0909 19.005 94.8354C17.48 95.245 16.278 96.4519 15.871 97.9846C15.13 100.762 15.13 106.559 15.13 106.559C15.13 106.559 15.13 112.355 15.871 115.132C16.278 116.665 17.48 117.872 19.005 118.282C21.77 119.026 32.857 119.026 32.857 119.026C32.857 119.026 43.944 119.026 46.709 118.282C48.235 117.872 49.436 116.665 49.844 115.132C50.584 112.355 50.584 106.559 50.584 106.559C50.584 106.559 50.584 100.762 49.844 97.9846ZM29.312 111.902V101.215L38.523 106.559L29.312 111.902Z" fill="#F8FAFC"/>
</g>
<path d="M51.55 96.4904C51.913 97.8511 52.098 99.9706 52.19 101.768C52.236 102.663 52.259 103.471 52.271 104.056C52.277 104.348 52.28 104.585 52.281 104.748C52.282 104.829 52.282 104.893 52.282 104.935V104.984V104.996V104.999V105.001V105.004V105.016V105.065C52.282 105.108 52.282 105.171 52.281 105.252C52.28 105.416 52.277 105.652 52.271 105.944C52.259 106.529 52.236 107.338 52.19 108.233C52.098 110.03 51.913 112.149 51.55 113.509C51.165 114.955 50.031 116.096 48.592 116.482C47.927 116.661 46.738 116.799 45.308 116.904C43.885 117.009 42.244 117.078 40.687 117.125C39.13 117.171 37.66 117.194 36.578 117.206C36.037 117.212 35.594 117.215 35.286 117.216C35.132 117.217 35.012 117.217 34.93 117.217L34.837 117.218H34.813H34.807H34.806H34.805H34.803H34.797H34.774L34.681 117.217C34.599 117.217 34.479 117.217 34.325 117.216C34.016 117.215 33.573 117.212 33.032 117.206C31.951 117.194 30.48 117.171 28.924 117.125C27.366 117.078 25.725 117.009 24.302 116.904C22.872 116.799 21.683 116.661 21.018 116.482C19.579 116.096 18.445 114.956 18.06 113.51C17.697 112.15 17.513 110.03 17.42 108.233C17.374 107.338 17.351 106.529 17.339 105.944C17.334 105.652 17.331 105.416 17.329 105.252C17.329 105.171 17.328 105.108 17.328 105.065V105.016V105.004V105.001V104.999V104.996V104.984V104.935C17.328 104.893 17.329 104.829 17.329 104.748C17.331 104.585 17.334 104.348 17.339 104.056C17.351 103.471 17.374 102.663 17.42 101.768C17.513 99.9706 17.697 97.8512 18.06 96.4906C18.445 95.0439 19.579 93.9047 21.018 93.5183C21.683 93.3392 22.872 93.2007 24.302 93.0959C25.725 92.9915 27.366 92.9219 28.924 92.8754C30.48 92.8289 31.951 92.8057 33.032 92.7941C33.573 92.7883 34.016 92.7854 34.325 92.7839C34.479 92.7832 34.599 92.7828 34.681 92.7827L34.774 92.7825H34.797H34.803H34.805H34.806H34.807H34.813H34.837L34.93 92.7827C35.012 92.7828 35.132 92.7832 35.286 92.7839C35.594 92.7854 36.037 92.7883 36.578 92.7941C37.66 92.8057 39.13 92.8289 40.687 92.8754C42.244 92.9219 43.885 92.9915 45.308 93.0959C46.738 93.2007 47.927 93.3392 48.592 93.5183C50.031 93.9046 51.165 95.0437 51.55 96.4904ZM31.01 110.344V110.778L31.385 110.56L40.596 105.216L40.969 105L40.596 104.784L31.385 99.4406L31.01 99.2228V99.6568V110.344Z" fill="#0F172A" fill-opacity="0.9"/>
<path d="M52.282 104.999V104.996V104.984V104.935C52.282 104.893 52.282 104.829 52.281 104.748C52.28 104.585 52.277 104.348 52.271 104.056C52.259 103.471 52.236 102.663 52.19 101.768C52.098 99.9706 51.913 97.8511 51.55 96.4904C51.165 95.0437 50.031 93.9046 48.592 93.5183C47.927 93.3392 46.738 93.2007 45.308 93.0959C43.885 92.9915 42.244 92.9219 40.687 92.8754C39.13 92.8289 37.66 92.8057 36.578 92.7941C36.037 92.7883 35.594 92.7854 35.286 92.7839C35.132 92.7832 35.012 92.7828 34.93 92.7827L34.837 92.7825H34.813H34.807H34.806H34.805M52.282 104.999L52.532 105M52.282 104.999V105.001V105.004V105.016V105.065C52.282 105.108 52.282 105.171 52.281 105.252C52.28 105.416 52.277 105.652 52.271 105.944C52.259 106.529 52.236 107.338 52.19 108.233C52.098 110.03 51.913 112.149 51.55 113.509C51.165 114.955 50.031 116.096 48.592 116.482C47.927 116.661 46.738 116.799 45.308 116.904C43.885 117.009 42.244 117.078 40.687 117.125C39.13 117.171 37.66 117.194 36.578 117.206C36.037 117.212 35.594 117.215 35.286 117.216C35.132 117.217 35.012 117.217 34.93 117.217L34.837 117.218H34.813H34.807H34.806H34.805M34.805 117.218C34.805 117.218 34.805 117.218 34.805 117.468M34.805 117.218H34.803H34.797H34.774L34.681 117.217C34.599 117.217 34.479 117.217 34.325 117.216C34.016 117.215 33.573 117.212 33.032 117.206C31.951 117.194 30.48 117.171 28.924 117.125C27.366 117.078 25.725 117.009 24.302 116.904C22.872 116.799 21.683 116.661 21.018 116.482C19.579 116.096 18.445 114.956 18.06 113.51C17.697 112.15 17.513 110.03 17.42 108.233C17.374 107.338 17.351 106.529 17.339 105.944C17.334 105.652 17.331 105.416 17.329 105.252C17.329 105.171 17.328 105.108 17.328 105.065V105.016V105.004V105.001M17.328 105.001L17.078 105M17.328 105.001V104.999V104.996V104.984V104.935C17.328 104.893 17.329 104.829 17.329 104.748C17.331 104.585 17.334 104.348 17.339 104.056C17.351 103.471 17.374 102.663 17.42 101.768C17.513 99.9706 17.697 97.8512 18.06 96.4906C18.445 95.0439 19.579 93.9047 21.018 93.5183C21.683 93.3392 22.872 93.2007 24.302 93.0959C25.725 92.9915 27.366 92.9219 28.924 92.8754C30.48 92.8289 31.951 92.8057 33.032 92.7941C33.573 92.7883 34.016 92.7854 34.325 92.7839C34.479 92.7832 34.599 92.7828 34.681 92.7827L34.774 92.7825H34.797H34.803H34.805M34.805 92.7825C34.805 92.7825 34.805 92.7825 34.805 92.5325M31.01 110.344V110.778L31.385 110.56L40.596 105.216L40.969 105L40.596 104.784L31.385 99.4406L31.01 99.2228V99.6568V110.344Z" stroke="#0F172A" stroke-width="0.5"/>
<path d="M142 38C142 21.4315 128.569 8 112 8C95.4315 8 82 21.4315 82 38C82 54.5685 95.4315 68 112 68C128.569 68 142 54.5685 142 38Z" fill="url(#paint8_linear_27_7)"/>
<g filter="url(#filter6_f_27_7)">
<path d="M141.221 38C141.221 21.8618 128.138 8.77917 112 8.77917C95.8616 8.77917 82.779 21.8618 82.779 38C82.779 54.1382 95.8616 67.2208 112 67.2208C128.138 67.2208 141.221 54.1382 141.221 38Z" fill="url(#paint9_linear_27_7)"/>
<path d="M140.971 38C140.971 21.9998 128 9.02917 112 9.02917C95.9997 9.02917 83.029 21.9998 83.029 38C83.029 54.0001 95.9997 66.9708 112 66.9708C128 66.9708 140.971 54.0001 140.971 38Z" stroke="url(#paint10_linear_27_7)" stroke-width="0.5"/>
</g>
<g filter="url(#filter7_f_27_7)">
<path d="M115.543 33.7954V29.0407C115.543 26.8942 116.067 25.8084 119.751 25.8084H124.374V17.8214H116.66C107.208 17.8214 104.09 21.74 104.09 28.4666V33.7954H97.88V41.782H104.09V65.743H115.543V41.782H123.325L124.374 33.7954H115.543Z" fill="#13488C" fill-opacity="0.5"/>
</g>
<path fill-rule="evenodd" clip-rule="evenodd" d="M117.621 28.8088V33.7955H125.932L124.945 42.172H117.621V67.302H117.615V67.475C114.773 68.234 109.127 68.067 106.84 67.558V66.452H106.841V42.172H100.997V33.7955H106.841V28.2067C106.841 21.152 109.777 17.0422 118.673 17.0422H125.932V25.4189H121.582C118.114 25.4189 117.621 26.5576 117.621 28.8088Z" fill="white" fill-opacity="0.9"/>
<mask id="mask0_27_7" style="mask-type:luminance" maskUnits="userSpaceOnUse" x="100" y="17" width="26" height="51">
<path fill-rule="evenodd" clip-rule="evenodd" d="M117.621 28.8088V33.7955H125.932L124.945 42.172H117.621V67.302H117.615V67.475C114.773 68.234 109.127 68.067 106.84 67.558V66.452H106.841V42.172H100.997V33.7955H106.841V28.2067C106.841 21.152 109.777 17.0422 118.673 17.0422H125.932V25.4189H121.582C118.114 25.4189 117.621 26.5576 117.621 28.8088Z" fill="white"/>
</mask>
<g mask="url(#mask0_27_7)">
<path d="M117.621 33.7955H117.121V34.2955H117.621V33.7955ZM125.932 33.7955L126.429 33.854L126.495 33.2955H125.932V33.7955ZM124.945 42.172V42.672H125.39L125.442 42.231L124.945 42.172ZM117.621 42.172V41.672H117.121V42.172H117.621ZM117.621 67.302V67.802H118.121V67.302H117.621ZM117.615 67.302V66.802H117.115V67.302H117.615ZM117.615 67.475L117.744 67.958L118.115 67.859V67.475H117.615ZM106.84 67.558H106.34V67.959L106.731 68.046L106.84 67.558ZM106.84 66.452V65.952H106.34V66.452H106.84ZM106.841 66.452V66.952H107.341V66.452H106.841ZM106.841 42.172H107.341V41.672H106.841V42.172ZM100.997 42.172H100.497V42.672H100.997V42.172ZM100.997 33.7955V33.2955H100.497V33.7955H100.997ZM106.841 33.7955V34.2955H107.341V33.7955H106.841ZM125.932 17.0422H126.432V16.5422H125.932V17.0422ZM125.932 25.4189V25.9189H126.432V25.4189H125.932ZM118.121 33.7955V28.8088H117.121V33.7955H118.121ZM125.932 33.2955H117.621V34.2955H125.932V33.2955ZM125.442 42.231L126.429 33.854L125.436 33.737L124.449 42.114L125.442 42.231ZM117.621 42.672H124.945V41.672H117.621V42.672ZM118.121 67.302V42.172H117.121V67.302H118.121ZM117.615 67.802H117.621V66.802H117.615V67.802ZM117.115 67.302V67.475H118.115V67.302H117.115ZM117.486 66.992C116.131 67.354 114.063 67.502 112.022 67.492C109.984 67.481 108.041 67.313 106.948 67.07L106.731 68.046C107.926 68.312 109.95 68.481 112.017 68.492C114.081 68.503 116.257 68.355 117.744 67.958L117.486 66.992ZM107.34 67.558V66.452H106.34V67.558H107.34ZM106.84 66.952H106.841V65.952H106.84V66.952ZM106.341 42.172V66.452H107.341V42.172H106.341ZM100.997 42.672H106.841V41.672H100.997V42.672ZM100.497 33.7955V42.172H101.497V33.7955H100.497ZM106.841 33.2955H100.997V34.2955H106.841V33.2955ZM106.341 28.2067V33.7955H107.341V28.2067H106.341ZM118.673 16.5422C114.159 16.5422 111.041 17.584 109.062 19.6314C107.085 21.6761 106.341 24.6234 106.341 28.2067H107.341C107.341 24.7353 108.066 22.1004 109.78 20.3265C111.493 18.5553 114.291 17.5422 118.673 17.5422V16.5422ZM125.932 16.5422H118.673V17.5422H125.932V16.5422ZM126.432 25.4189V17.0422H125.432V25.4189H126.432ZM121.582 25.9189H125.932V24.9189H121.582V25.9189ZM118.121 28.8088C118.121 27.6814 118.256 27.0284 118.657 26.6202C119.062 26.2086 119.867 25.9189 121.582 25.9189V24.9189C119.829 24.9189 118.653 25.1985 117.944 25.919C117.232 26.643 117.121 27.6849 117.121 28.8088H118.121Z" fill="url(#paint11_linear_27_7)"/>
</g>
<path d="M127 160C127 151.716 120.284 145 112 145C103.716 145 97 151.716 97 160C97 168.284 103.716 175 112 175C120.284 175 127 168.284 127 160Z" fill="url(#paint12_linear_27_7)"/>
<g filter="url(#filter8_f_27_7)">
<path d="M126.61 160C126.61 151.931 120.069 145.39 112 145.39C103.931 145.39 97.3895 151.931 97.3895 160C97.3895 168.069 103.931 174.61 112 174.61C120.069 174.61 126.61 168.069 126.61 160Z" fill="url(#paint13_linear_27_7)"/>
<path d="M126.485 160C126.485 152 120 145.515 112 145.515C104 145.515 97.5145 152 97.5145 160C97.5145 168 104 174.485 112 174.485C120 174.485 126.485 168 126.485 160Z" stroke="url(#paint14_linear_27_7)" stroke-width="0.5"/>
</g>
<g filter="url(#filter9_f_27_7)">
<path d="M113.772 157.898V155.52C113.772 154.447 114.034 153.904 115.876 153.904H118.187V149.911H114.33C109.604 149.911 108.045 151.87 108.045 155.233V157.898H104.94V161.891H108.045V173.872H113.772V161.891H117.663L118.187 157.898H113.772Z" fill="#13488C" fill-opacity="0.5"/>
</g>
<path fill-rule="evenodd" clip-rule="evenodd" d="M114.811 155.404V157.898H118.966L118.473 162.086H114.811V174.651H114.808V174.738C113.387 175.117 110.564 175.034 109.42 174.779V174.226H109.421V162.086H106.499V157.898H109.421V155.103C109.421 151.576 110.889 149.521 115.337 149.521H118.966V153.709H116.791C115.057 153.709 114.811 154.279 114.811 155.404Z" fill="white" fill-opacity="0.9"/>
<mask id="mask1_27_7" style="mask-type:luminance" maskUnits="userSpaceOnUse" x="106" y="149" width="13" height="26">
<path fill-rule="evenodd" clip-rule="evenodd" d="M114.811 155.404V157.898H118.966L118.473 162.086H114.811V174.651H114.808V174.738C113.387 175.117 110.564 175.034 109.42 174.779V174.226H109.421V162.086H106.499V157.898H109.421V155.103C109.421 151.576 110.889 149.521 115.337 149.521H118.966V153.709H116.791C115.057 153.709 114.811 154.279 114.811 155.404Z" fill="white"/>
</mask>
<g mask="url(#mask1_27_7)">
<path d="M114.811 157.898H114.561V158.148H114.811V157.898ZM118.966 157.898L119.215 157.927L119.248 157.648H118.966V157.898ZM118.473 162.086V162.336H118.695L118.721 162.116L118.473 162.086ZM114.811 162.086V161.836H114.561V162.086H114.811ZM114.811 174.651V174.901H115.061V174.651H114.811ZM114.808 174.651V174.401H114.558V174.651H114.808ZM114.808 174.738L114.872 174.979L115.058 174.93V174.738H114.808ZM109.42 174.779H109.17V174.98L109.366 175.023L109.42 174.779ZM109.42 174.226V173.976H109.17V174.226H109.42ZM109.421 174.226V174.476H109.671V174.226H109.421ZM109.421 162.086H109.671V161.836H109.421V162.086ZM106.499 162.086H106.249V162.336H106.499V162.086ZM106.499 157.898V157.648H106.249V157.898H106.499ZM109.421 157.898V158.148H109.671V157.898H109.421ZM118.966 149.521H119.216V149.271H118.966V149.521ZM118.966 153.709V153.959H119.216V153.709H118.966ZM115.061 157.898V155.404H114.561V157.898H115.061ZM118.966 157.648H114.811V158.148H118.966V157.648ZM118.721 162.116L119.215 157.927L118.718 157.869L118.225 162.057L118.721 162.116ZM114.811 162.336H118.473V161.836H114.811V162.336ZM115.061 174.651V162.086H114.561V174.651H115.061ZM114.808 174.901H114.811V174.401H114.808V174.901ZM114.558 174.651V174.738H115.058V174.651H114.558ZM114.743 174.496C114.066 174.677 113.032 174.751 112.011 174.746C110.992 174.741 110.021 174.657 109.474 174.535L109.366 175.023C109.963 175.156 110.975 175.241 112.009 175.246C113.041 175.252 114.129 175.178 114.872 174.979L114.743 174.496ZM109.67 174.779V174.226H109.17V174.779H109.67ZM109.42 174.476H109.421V173.976H109.42V174.476ZM109.171 162.086V174.226H109.671V162.086H109.171ZM106.499 162.336H109.421V161.836H106.499V162.336ZM106.249 157.898V162.086H106.749V157.898H106.249ZM109.421 157.648H106.499V158.148H109.421V157.648ZM109.171 155.103V157.898H109.671V155.103H109.171ZM115.337 149.271C113.08 149.271 111.521 149.792 110.531 150.816C109.543 151.838 109.171 153.312 109.171 155.103H109.671C109.671 153.368 110.033 152.05 110.89 151.163C111.747 150.278 113.146 149.771 115.337 149.771V149.271ZM118.966 149.271H115.337V149.771H118.966V149.271ZM119.216 153.709V149.521H118.716V153.709H119.216ZM116.791 153.959H118.966V153.459H116.791V153.959ZM115.061 155.404C115.061 154.841 115.128 154.514 115.329 154.31C115.531 154.104 115.934 153.959 116.791 153.959V153.459C115.915 153.459 115.327 153.599 114.972 153.96C114.616 154.322 114.561 154.842 114.561 155.404H115.061Z" fill="url(#paint15_linear_27_7)"/>
</g>
<path d="M142 106C142 89.4315 128.569 76 112 76C95.4315 76 82 89.4315 82 106C82 122.569 95.4315 136 112 136C128.569 136 142 122.569 142 106Z" fill="#F8FAFC"/>
<g filter="url(#filter10_f_27_7)">
<path d="M141.221 106C141.221 89.8618 128.138 76.7792 112 76.7792C95.8616 76.7792 82.779 89.8618 82.779 106C82.779 122.138 95.8616 135.221 112 135.221C128.138 135.221 141.221 122.138 141.221 106Z" fill="#F8FAFC"/>
<path d="M140.971 106C140.971 89.9998 128 77.0292 112 77.0292C95.9997 77.0292 83.029 89.9998 83.029 106C83.029 122 95.9997 134.971 112 134.971C128 134.971 140.971 122 140.971 106Z" fill="#F8FAFC" stroke="#F8FAFC" stroke-width="0.5"/>
</g>
<path fill-rule="evenodd" clip-rule="evenodd" d="M117.621 96.8088V101.795H125.932L124.945 110.172H117.621V135.302H117.615V135.475C114.773 136.234 109.127 136.067 106.84 135.558V134.452H106.841V110.172H100.997V101.795H106.841V96.2067C106.841 89.152 109.777 85.0422 118.673 85.0422H125.932V93.4189H121.582C118.114 93.4189 117.621 94.5576 117.621 96.8088Z" fill="#0F172A" fill-opacity="0.9"/>
<path d="M219 35C219 18.4315 205.569 5 189 5C172.431 5 159 18.4315 159 35C159 51.5685 172.431 65 189 65C205.569 65 219 51.5685 219 35Z" fill="url(#paint16_linear_27_7)"/>
<g filter="url(#filter11_f_27_7)">
<path d="M218.221 35C218.221 18.8618 205.138 5.77917 189 5.77917C172.862 5.77917 159.779 18.8618 159.779 35C159.779 51.1382 172.862 64.2208 189 64.2208C205.138 64.2208 218.221 51.1382 218.221 35Z" fill="url(#paint17_linear_27_7)"/>
<path d="M217.971 35C217.971 18.9998 205 6.02917 189 6.02917C173 6.02917 160.029 18.9998 160.029 35C160.029 51.0001 173 63.9708 189 63.9708C205 63.9708 217.971 51.0001 217.971 35Z" stroke="url(#paint18_linear_27_7)" stroke-width="0.5"/>
</g>
<g filter="url(#filter12_f_27_7)">
<path fill-rule="evenodd" clip-rule="evenodd" d="M178.48 23.1168C178.48 25.161 176.736 26.8181 174.584 26.8181C172.433 26.8181 170.688 25.161 170.688 23.1168C170.688 21.0727 172.433 19.4155 174.584 19.4155C176.736 19.4155 178.48 21.0727 178.48 23.1168ZM170.688 52.922H177.868V28.7662H170.688V52.922ZM197.015 52.922H204.195V39.281C204.195 36.018 203.436 33.694 201.911 31.962C200.397 30.2324 198.412 29.544 195.959 29.544C192.733 29.544 190.38 31.1818 188.909 33.5973H188.76L188.322 28.7662H182.655C182.751 31.1818 182.655 52.922 182.655 52.922H189.835V37.796C190.428 35.919 191.611 34.9815 193.475 34.9815C195.828 34.9815 197.015 36.655 197.015 40.018V52.922Z" fill="#0B4C8C"/>
</g>
<path fill-rule="evenodd" clip-rule="evenodd" d="M181.597 21.1688C181.597 23.213 179.853 24.8701 177.701 24.8701C175.55 24.8701 173.805 23.213 173.805 21.1688C173.805 19.1247 175.55 17.4675 177.701 17.4675C179.853 17.4675 181.597 19.1247 181.597 21.1688ZM173.805 50.974H180.985V26.8182H173.805V50.974ZM200.132 50.974H207.312V37.333C207.312 34.0698 206.553 31.746 205.028 30.014C203.513 28.2844 201.529 27.596 199.076 27.596C195.85 27.596 193.497 29.2338 192.026 31.6493H191.877L191.439 26.8182H185.772C185.868 29.2338 185.772 50.974 185.772 50.974H192.952V35.848C193.545 33.9707 194.728 33.0335 196.592 33.0335C198.945 33.0335 200.132 34.7075 200.132 38.07V50.974Z" fill="white" fill-opacity="0.9"/>
<mask id="mask2_27_7" style="mask-type:luminance" maskUnits="userSpaceOnUse" x="173" y="17" width="35" height="34">
<path fill-rule="evenodd" clip-rule="evenodd" d="M181.597 21.1688C181.597 23.213 179.853 24.8701 177.701 24.8701C175.55 24.8701 173.805 23.213 173.805 21.1688C173.805 19.1247 175.55 17.4675 177.701 17.4675C179.853 17.4675 181.597 19.1247 181.597 21.1688ZM173.805 50.974H180.985V26.8182H173.805V50.974ZM200.132 50.974H207.312V37.333C207.312 34.0698 206.553 31.746 205.028 30.014C203.513 28.2844 201.529 27.596 199.076 27.596C195.85 27.596 193.497 29.2338 192.026 31.6493H191.877L191.439 26.8182H185.772C185.868 29.2338 185.772 50.974 185.772 50.974H192.952V35.848C193.545 33.9707 194.728 33.0335 196.592 33.0335C198.945 33.0335 200.132 34.7075 200.132 38.07V50.974Z" fill="white"/>
</mask>
<g mask="url(#mask2_27_7)">
<path d="M180.985 50.974V51.474H181.485V50.974H180.985ZM173.805 50.974H173.305V51.474H173.805V50.974ZM180.985 26.8182H181.485V26.3182H180.985V26.8182ZM173.805 26.8182V26.3182H173.305V26.8182H173.805ZM207.312 50.974V51.474H207.812V50.974H207.312ZM200.132 50.974H199.632V51.474H200.132V50.974ZM205.028 30.014L204.652 30.3434L204.653 30.3444L205.028 30.014ZM192.026 31.6493V32.1493H192.306L192.453 31.9095L192.026 31.6493ZM191.877 31.6493L191.379 31.6945L191.42 32.1493H191.877V31.6493ZM191.439 26.8182L191.937 26.773L191.896 26.3182H191.439V26.8182ZM185.772 26.8182V26.3182H185.252L185.272 26.838L185.772 26.8182ZM185.772 50.974L185.272 50.972L185.27 51.474H185.772V50.974ZM192.952 50.974V51.474H193.452V50.974H192.952ZM192.952 35.848L192.475 35.697L192.452 35.77V35.848H192.952ZM177.701 25.3701C180.105 25.3701 182.097 23.513 182.097 21.1688H181.097C181.097 22.913 179.601 24.3701 177.701 24.3701V25.3701ZM173.305 21.1688C173.305 23.513 175.298 25.3701 177.701 25.3701V24.3701C175.801 24.3701 174.305 22.913 174.305 21.1688H173.305ZM177.701 16.9675C175.298 16.9675 173.305 18.8247 173.305 21.1688H174.305C174.305 19.4247 175.801 17.9675 177.701 17.9675V16.9675ZM182.097 21.1688C182.097 18.8247 180.105 16.9675 177.701 16.9675V17.9675C179.601 17.9675 181.097 19.4247 181.097 21.1688H182.097ZM180.985 50.474H173.805V51.474H180.985V50.474ZM180.485 26.8182V50.974H181.485V26.8182H180.485ZM173.805 27.3182H180.985V26.3182H173.805V27.3182ZM174.305 50.974V26.8182H173.305V50.974H174.305ZM207.312 50.474H200.132V51.474H207.312V50.474ZM206.812 37.333V50.974H207.812V37.333H206.812ZM204.653 30.3444C206.073 31.9576 206.812 34.1491 206.812 37.333H207.812C207.812 33.9904 207.033 31.5343 205.404 29.6836L204.653 30.3444ZM199.076 28.096C201.426 28.096 203.256 28.7496 204.652 30.3434L205.405 29.6845C203.771 27.8193 201.633 27.096 199.076 27.096V28.096ZM192.453 31.9095C193.847 29.6211 196.049 28.096 199.076 28.096V27.096C195.652 27.096 193.148 28.8465 191.599 31.3892L192.453 31.9095ZM191.877 32.1493H192.026V31.1493H191.877V32.1493ZM190.941 26.8633L191.379 31.6945L192.375 31.6042L191.937 26.773L190.941 26.8633ZM185.772 27.3182H191.439V26.3182H185.772V27.3182ZM185.772 50.974C186.272 50.976 186.272 50.976 186.272 50.976C186.272 50.976 186.272 50.974 186.272 50.972C186.272 50.97 186.272 50.966 186.272 50.96C186.272 50.95 186.272 50.934 186.272 50.914C186.272 50.873 186.272 50.811 186.273 50.731C186.274 50.572 186.274 50.337 186.276 50.037C186.278 49.438 186.281 48.579 186.285 47.541C186.293 45.465 186.302 42.672 186.308 39.803C186.32 34.0748 186.32 28.0198 186.271 26.7984L185.272 26.838C185.319 28.0321 185.32 34.055 185.308 39.801C185.302 42.669 185.293 45.462 185.285 47.538C185.282 48.575 185.278 49.434 185.276 50.033C185.274 50.333 185.274 50.567 185.273 50.727C185.272 50.807 185.272 50.868 185.272 50.909C185.272 50.93 185.272 50.946 185.272 50.956C185.272 50.961 185.272 50.965 185.272 50.968C185.272 50.969 185.272 50.971 185.272 50.972C185.272 50.972 185.272 50.972 185.772 50.974ZM192.952 50.474H185.772V51.474H192.952V50.474ZM192.452 35.848V50.974H193.452V35.848H192.452ZM196.592 32.5335C195.573 32.5335 194.696 32.7912 193.988 33.3421C193.284 33.89 192.793 34.6917 192.475 35.697L193.428 35.998C193.704 35.127 194.101 34.5212 194.602 34.1314C195.1 33.7444 195.747 33.5335 196.592 33.5335V32.5335ZM200.632 38.07C200.632 36.345 200.33 34.9641 199.653 34.0029C198.953 33.0097 197.903 32.5335 196.592 32.5335V33.5335C197.634 33.5335 198.353 33.8943 198.835 34.5787C199.34 35.295 199.632 36.432 199.632 38.07H200.632ZM200.632 50.974V38.07H199.632V50.974H200.632Z" fill="url(#paint19_linear_27_7)"/>
</g>
<path d="M204 160C204 151.716 197.284 145 189 145C180.716 145 174 151.716 174 160C174 168.284 180.716 175 189 175C197.284 175 204 168.284 204 160Z" fill="url(#paint20_linear_27_7)"/>
<g filter="url(#filter13_f_27_7)">
<path d="M203.61 160C203.61 151.931 197.069 145.39 189 145.39C180.931 145.39 174.39 151.931 174.39 160C174.39 168.069 180.931 174.61 189 174.61C197.069 174.61 203.61 168.069 203.61 160Z" fill="url(#paint21_linear_27_7)"/>
<path d="M203.485 160C203.485 152 197 145.515 189 145.515C181 145.515 174.515 152 174.515 160C174.515 168 181 174.485 189 174.485C197 174.485 203.485 168 203.485 160Z" stroke="url(#paint22_linear_27_7)" stroke-width="0.5"/>
</g>
<g filter="url(#filter14_f_27_7)">
<path fill-rule="evenodd" clip-rule="evenodd" d="M183.74 154.058C183.74 155.081 182.868 155.909 181.792 155.909C180.716 155.909 179.844 155.081 179.844 154.058C179.844 153.036 180.716 152.208 181.792 152.208C182.868 152.208 183.74 153.036 183.74 154.058ZM179.844 168.961H183.434V156.883H179.844V168.961ZM193.007 168.961H196.597V162.141C196.597 160.509 196.218 159.347 195.455 158.481C194.698 157.616 193.706 157.272 192.479 157.272C190.866 157.272 189.69 158.091 188.954 159.299H188.88L188.661 156.883H185.827C185.875 158.091 185.827 168.961 185.827 168.961H189.417V161.398C189.714 160.46 190.305 159.991 191.237 159.991C192.414 159.991 193.007 160.828 193.007 162.509V168.961Z" fill="#0B4C8C"/>
</g>
<path fill-rule="evenodd" clip-rule="evenodd" d="M185.298 153.084C185.298 154.107 184.426 154.935 183.35 154.935C182.275 154.935 181.402 154.107 181.402 153.084C181.402 152.062 182.275 151.234 183.35 151.234C184.426 151.234 185.298 152.062 185.298 153.084ZM181.402 167.987H184.992V155.909H181.402V167.987ZM194.566 167.987H198.156V161.167C198.156 159.535 197.776 158.373 197.014 157.507C196.256 156.642 195.264 156.298 194.038 156.298C192.425 156.298 191.248 157.117 190.513 158.325H190.438L190.219 155.909H187.386C187.434 157.117 187.386 167.987 187.386 167.987H190.976V160.424C191.272 159.485 191.864 159.017 192.796 159.017C193.972 159.017 194.566 159.854 194.566 161.535V167.987Z" fill="white" fill-opacity="0.9"/>
<mask id="mask3_27_7" style="mask-type:luminance" maskUnits="userSpaceOnUse" x="181" y="151" width="18" height="17">
<path fill-rule="evenodd" clip-rule="evenodd" d="M185.298 153.084C185.298 154.107 184.426 154.935 183.35 154.935C182.275 154.935 181.402 154.107 181.402 153.084C181.402 152.062 182.275 151.234 183.35 151.234C184.426 151.234 185.298 152.062 185.298 153.084ZM181.402 167.987H184.992V155.909H181.402V167.987ZM194.566 167.987H198.156V161.167C198.156 159.535 197.776 158.373 197.014 157.507C196.256 156.642 195.264 156.298 194.038 156.298C192.425 156.298 191.248 157.117 190.513 158.325H190.438L190.219 155.909H187.386C187.434 157.117 187.386 167.987 187.386 167.987H190.976V160.424C191.272 159.485 191.864 159.017 192.796 159.017C193.972 159.017 194.566 159.854 194.566 161.535V167.987Z" fill="white"/>
</mask>
<g mask="url(#mask3_27_7)">
<path d="M184.992 167.987V168.237H185.242V167.987H184.992ZM181.402 167.987H181.152V168.237H181.402V167.987ZM184.992 155.909H185.242V155.659H184.992V155.909ZM181.402 155.909V155.659H181.152V155.909H181.402ZM198.156 167.987V168.237H198.406V167.987H198.156ZM194.566 167.987H194.316V168.237H194.566V167.987ZM197.014 157.507L196.826 157.672L196.826 157.672L197.014 157.507ZM190.513 158.325V158.575H190.653L190.726 158.455L190.513 158.325ZM190.438 158.325L190.189 158.347L190.21 158.575H190.438V158.325ZM190.219 155.909L190.468 155.887L190.448 155.659H190.219V155.909ZM187.386 155.909V155.659H187.126L187.136 155.919L187.386 155.909ZM187.386 167.987L187.136 167.986L187.135 168.237H187.386V167.987ZM190.976 167.987V168.237H191.226V167.987H190.976ZM190.976 160.424L190.737 160.349L190.726 160.385V160.424H190.976ZM183.35 155.185C184.552 155.185 185.548 154.257 185.548 153.084H185.048C185.048 153.957 184.3 154.685 183.35 154.685V155.185ZM181.152 153.084C181.152 154.257 182.149 155.185 183.35 155.185V154.685C182.4 154.685 181.652 153.957 181.652 153.084H181.152ZM183.35 150.984C182.149 150.984 181.152 151.912 181.152 153.084H181.652C181.652 152.212 182.4 151.484 183.35 151.484V150.984ZM185.548 153.084C185.548 151.912 184.552 150.984 183.35 150.984V151.484C184.3 151.484 185.048 152.212 185.048 153.084H185.548ZM184.992 167.737H181.402V168.237H184.992V167.737ZM184.742 155.909V167.987H185.242V155.909H184.742ZM181.402 156.159H184.992V155.659H181.402V156.159ZM181.652 167.987V155.909H181.152V167.987H181.652ZM198.156 167.737H194.566V168.237H198.156V167.737ZM197.906 161.167V167.987H198.406V161.167H197.906ZM196.826 157.672C197.536 158.479 197.906 159.575 197.906 161.167H198.406C198.406 159.495 198.016 158.267 197.202 157.342L196.826 157.672ZM194.038 156.548C195.213 156.548 196.128 156.875 196.826 157.672L197.202 157.342C196.385 156.41 195.316 156.048 194.038 156.048V156.548ZM190.726 158.455C191.423 157.311 192.524 156.548 194.038 156.548V156.048C192.326 156.048 191.074 156.923 190.299 158.195L190.726 158.455ZM190.438 158.575H190.513V158.075H190.438V158.575ZM189.97 155.932L190.189 158.347L190.687 158.302L190.468 155.887L189.97 155.932ZM187.386 156.159H190.219V155.659H187.386V156.159ZM187.386 167.987C187.636 167.988 187.636 167.988 187.636 167.988C187.636 167.988 187.636 167.987 187.636 167.986C187.636 167.985 187.636 167.983 187.636 167.98C187.636 167.975 187.636 167.967 187.636 167.957C187.636 167.937 187.636 167.906 187.636 167.866C187.637 167.786 187.637 167.669 187.638 167.519C187.639 167.219 187.64 166.79 187.642 166.271C187.646 165.233 187.651 163.836 187.654 162.402C187.66 159.537 187.66 156.51 187.635 155.899L187.136 155.919C187.159 156.516 187.16 159.528 187.154 162.401C187.151 163.835 187.146 165.231 187.142 166.269C187.141 166.788 187.139 167.217 187.138 167.517C187.137 167.667 187.137 167.784 187.136 167.864C187.136 167.904 187.136 167.934 187.136 167.955C187.136 167.965 187.136 167.973 187.136 167.978C187.136 167.981 187.136 167.983 187.136 167.984C187.136 167.985 187.136 167.986 187.136 167.986C187.136 167.986 187.136 167.986 187.386 167.987ZM190.976 167.737H187.386V168.237H190.976V167.737ZM190.726 160.424V167.987H191.226V160.424H190.726ZM192.796 158.767C192.286 158.767 191.848 158.896 191.494 159.171C191.142 159.445 190.896 159.846 190.737 160.349L191.214 160.499C191.352 160.064 191.55 159.761 191.801 159.566C192.05 159.372 192.373 159.267 192.796 159.267V158.767ZM194.816 161.535C194.816 160.673 194.665 159.982 194.326 159.501C193.976 159.005 193.451 158.767 192.796 158.767V159.267C193.317 159.267 193.676 159.447 193.917 159.789C194.17 160.148 194.316 160.716 194.316 161.535H194.816ZM194.816 167.987V161.535H194.316V167.987H194.816Z" fill="url(#paint23_linear_27_7)"/>
</g>
<path d="M219 106C219 89.4315 205.569 76 189 76C172.431 76 159 89.4315 159 106C159 122.569 172.431 136 189 136C205.569 136 219 122.569 219 106Z" fill="#F8FAFC"/>
<g filter="url(#filter15_f_27_7)">
<path d="M218.221 106C218.221 89.8618 205.138 76.7792 189 76.7792C172.862 76.7792 159.779 89.8618 159.779 106C159.779 122.138 172.862 135.221 189 135.221C205.138 135.221 218.221 122.138 218.221 106Z" fill="#F8FAFC"/>
<path d="M217.971 106C217.971 89.9998 205 77.0292 189 77.0292C173 77.0292 160.029 89.9998 160.029 106C160.029 122 173 134.971 189 134.971C205 134.971 217.971 122 217.971 106Z" fill="#F8FAFC" stroke="#F8FAFC" stroke-width="0.5"/>
</g>
<path fill-rule="evenodd" clip-rule="evenodd" d="M181.597 92.1688C181.597 94.213 179.853 95.8701 177.701 95.8701C175.55 95.8701 173.805 94.213 173.805 92.1688C173.805 90.1247 175.55 88.4675 177.701 88.4675C179.853 88.4675 181.597 90.1247 181.597 92.1688ZM173.805 121.974H180.985V97.8182H173.805V121.974ZM200.132 121.974H207.312V108.333C207.312 105.07 206.553 102.746 205.028 101.014C203.513 99.2844 201.529 98.596 199.076 98.596C195.85 98.596 193.497 100.234 192.026 102.649H191.877L191.439 97.8182H185.772C185.868 100.234 185.772 121.974 185.772 121.974H192.952V106.848C193.545 104.971 194.728 104.034 196.592 104.034C198.945 104.034 200.132 105.708 200.132 109.07V121.974Z" fill="#0F172A" fill-opacity="0.9"/>
<path d="M296 37C296 20.4315 282.569 7 266 7C249.431 7 236 20.4315 236 37C236 53.5685 249.431 67 266 67C282.569 67 296 53.5685 296 37Z" fill="url(#paint24_linear_27_7)"/>
<g filter="url(#filter16_f_27_7)">
<path d="M295.221 37C295.221 20.8618 282.138 7.77917 266 7.77917C249.862 7.77917 236.779 20.8618 236.779 37C236.779 53.1382 249.862 66.2208 266 66.2208C282.138 66.2208 295.221 53.1382 295.221 37Z" fill="url(#paint25_linear_27_7)"/>
<path d="M294.971 37C294.971 20.9998 282 8.02917 266 8.02917C250 8.02917 237.029 20.9998 237.029 37C237.029 53.0001 250 65.9708 266 65.9708C282 65.9708 294.971 53.0001 294.971 37Z" stroke="url(#paint26_linear_27_7)" stroke-width="0.5"/>
</g>
<g filter="url(#filter17_f_27_7)">
<path d="M282.753 25.3564C281.393 25.9596 279.928 26.3665 278.392 26.5486C279.961 25.6119 281.163 24.1282 281.731 22.3582C280.263 23.2267 278.639 23.8569 276.909 24.1971C275.524 22.7254 273.55 21.8052 271.366 21.8052C267.173 21.8052 263.773 25.196 263.773 29.379C263.773 29.9717 263.84 30.5495 263.97 31.1048C257.659 30.7885 252.063 27.7739 248.317 23.1915C247.664 24.3095 247.289 25.6104 247.289 26.9998C247.289 29.627 248.63 31.9456 250.667 33.3034C249.423 33.2637 248.252 32.9227 247.228 32.3555C247.227 32.3869 247.227 32.4192 247.227 32.4514C247.227 36.1203 249.845 39.181 253.319 39.878C252.682 40.05 252.011 40.143 251.318 40.143C250.828 40.143 250.353 40.096 249.889 40.006C250.856 43.015 253.66 45.206 256.982 45.266C254.384 47.298 251.11 48.509 247.552 48.509C246.939 48.509 246.335 48.473 245.74 48.402C249.102 50.552 253.093 51.805 257.381 51.805C271.349 51.805 278.986 40.265 278.986 30.2565C278.986 29.9283 278.979 29.6008 278.965 29.2756C280.448 28.21 281.736 26.8754 282.753 25.3564Z" fill="#13488C" fill-opacity="0.5"/>
</g>
<path d="M260.883 45.016C257.816 44.96 255.206 43.028 254.161 40.322C254.505 40.368 254.856 40.393 255.214 40.393C255.929 40.393 256.622 40.297 257.28 40.119L257.264 39.632C254.005 38.979 251.526 36.1744 251.38 32.77C252.344 33.2382 253.421 33.517 254.556 33.5533L255.431 33.5812L254.702 33.0954C252.731 31.7819 251.435 29.54 251.435 26.9998C251.435 25.7846 251.731 24.64 252.255 23.6329C256.041 28.1087 261.6 31.0411 267.853 31.3545L268.185 31.3711L268.109 31.0478C267.984 30.5115 267.919 29.9529 267.919 29.379C267.919 25.3347 271.206 22.0552 275.262 22.0552C277.375 22.0552 279.283 22.945 280.623 24.3685L280.717 24.4691L280.853 24.4424C282.379 24.1424 283.824 23.6202 285.154 22.9105C284.544 24.3435 283.487 25.5412 282.16 26.334L282.317 26.7969C283.58 26.6473 284.795 26.3482 285.945 25.9149C285.034 27.1218 283.942 28.1909 282.715 29.0725L282.605 29.1514L282.611 29.2865C282.625 29.6079 282.632 29.9317 282.632 30.2565C282.632 40.157 275.079 51.555 261.277 51.555C257.417 51.555 253.801 50.528 250.676 48.74C250.932 48.752 251.189 48.759 251.448 48.759C255.064 48.759 258.391 47.528 261.032 45.463L261.588 45.029L260.883 45.016Z" fill="white" fill-opacity="0.9" stroke="url(#paint27_linear_27_7)" stroke-width="0.5"/>
<path d="M279 160C279 151.716 272.284 145 264 145C255.716 145 249 151.716 249 160C249 168.284 255.716 175 264 175C272.284 175 279 168.284 279 160Z" fill="url(#paint28_linear_27_7)"/>
<g filter="url(#filter18_f_27_7)">
<path d="M278.61 160C278.61 151.931 272.069 145.39 264 145.39C255.931 145.39 249.39 151.931 249.39 160C249.39 168.069 255.931 174.61 264 174.61C272.069 174.61 278.61 168.069 278.61 160Z" fill="url(#paint29_linear_27_7)"/>
<path d="M278.485 160C278.485 152 272 145.515 264 145.515C256 145.515 249.515 152 249.515 160C249.515 168 256 174.485 264 174.485C272 174.485 278.485 168 278.485 160Z" stroke="url(#paint30_linear_27_7)" stroke-width="0.5"/>
</g>
<g filter="url(#filter19_f_27_7)">
<path d="M272.376 154.178C271.696 154.48 270.964 154.683 270.196 154.774C270.98 154.306 271.581 153.564 271.865 152.679C271.131 153.113 270.319 153.428 269.454 153.599C268.762 152.863 267.775 152.403 266.683 152.403C264.586 152.403 262.886 154.098 262.886 156.189C262.886 156.486 262.92 156.775 262.985 157.052C259.829 156.894 257.031 155.387 255.158 153.096C254.832 153.655 254.644 154.305 254.644 155C254.644 156.313 255.315 157.473 256.333 158.152C255.711 158.132 255.126 157.961 254.614 157.678C254.613 157.693 254.613 157.71 254.613 157.726C254.613 159.56 255.922 161.09 257.659 161.439C257.341 161.525 257.005 161.571 256.659 161.571C256.414 161.571 256.176 161.548 255.944 161.503C256.428 163.007 257.83 164.103 259.491 164.133C258.192 165.149 256.555 165.754 254.776 165.754C254.469 165.754 254.167 165.736 253.87 165.701C255.551 166.776 257.546 167.402 259.69 167.402C266.674 167.402 270.493 161.632 270.493 156.628C270.493 156.464 270.489 156.3 270.482 156.138C271.224 155.605 271.868 154.938 272.376 154.178Z" fill="#13488C" fill-opacity="0.5"/>
</g>
<path d="M261.442 164.008C259.908 163.98 258.603 163.014 258.081 161.661C258.253 161.684 258.428 161.696 258.607 161.696C258.965 161.696 259.311 161.648 259.64 161.559L259.632 161.316C258.003 160.989 256.763 159.587 256.69 157.885C257.172 158.119 257.711 158.258 258.278 158.277L258.716 158.291L258.351 158.048C257.366 157.391 256.718 156.27 256.718 155C256.718 154.392 256.866 153.82 257.128 153.316C259.021 155.554 261.8 157.021 264.927 157.177L265.093 157.186L265.055 157.024C264.992 156.756 264.96 156.476 264.96 156.189C264.96 154.167 266.603 152.528 268.631 152.528C269.688 152.528 270.642 152.972 271.312 153.684L271.359 153.735L271.427 153.721C272.19 153.571 272.912 153.31 273.577 152.955C273.272 153.672 272.744 154.271 272.08 154.667L272.159 154.898C272.79 154.824 273.398 154.674 273.973 154.457C273.517 155.061 272.971 155.595 272.358 156.036L272.303 156.076L272.306 156.143C272.313 156.304 272.316 156.466 272.316 156.628C272.316 161.578 268.54 167.277 261.639 167.277C259.709 167.277 257.901 166.764 256.338 165.87C256.466 165.876 256.595 165.879 256.724 165.879C258.532 165.879 260.196 165.264 261.516 164.231L261.794 164.014L261.442 164.008Z" fill="white" fill-opacity="0.9" stroke="url(#paint31_linear_27_7)" stroke-width="0.5"/>
<path d="M296 106C296 89.4315 282.569 76 266 76C249.431 76 236 89.4315 236 106C236 122.569 249.431 136 266 136C282.569 136 296 122.569 296 106Z" fill="url(#paint32_linear_27_7)"/>
<g filter="url(#filter20_f_27_7)">
<path d="M295.221 106C295.221 89.8618 282.138 76.7792 266 76.7792C249.862 76.7792 236.779 89.8618 236.779 106C236.779 122.138 249.862 135.221 266 135.221C282.138 135.221 295.221 122.138 295.221 106Z" fill="url(#paint33_linear_27_7)"/>
<path d="M294.971 106C294.971 89.9998 282 77.0292 266 77.0292C250 77.0292 237.029 89.9998 237.029 106C237.029 122 250 134.971 266 134.971C282 134.971 294.971 122 294.971 106Z" fill="url(#paint34_linear_27_7)" stroke="url(#paint35_linear_27_7)" stroke-width="0.5"/>
</g>
<g filter="url(#filter21_f_27_7)">
<path d="M282.753 94.3564C281.393 94.9596 279.928 95.3665 278.392 95.5486C279.961 94.6119 281.163 93.1282 281.731 91.3582C280.263 92.2267 278.639 92.8569 276.909 93.1971C275.524 91.7254 273.55 90.8052 271.366 90.8052C267.173 90.8052 263.773 94.196 263.773 98.379C263.773 98.9717 263.84 99.5495 263.97 100.105C257.659 99.7885 252.063 96.7739 248.317 92.1915C247.664 93.3095 247.289 94.6104 247.289 95.9998C247.289 98.627 248.63 100.946 250.667 102.303C249.423 102.264 248.252 101.923 247.228 101.355C247.227 101.387 247.227 101.419 247.227 101.451C247.227 105.12 249.845 108.181 253.319 108.878C252.682 109.05 252.011 109.143 251.318 109.143C250.828 109.143 250.353 109.096 249.889 109.006C250.856 112.015 253.66 114.206 256.982 114.266C254.384 116.298 251.11 117.509 247.552 117.509C246.939 117.509 246.335 117.473 245.74 117.402C249.102 119.552 253.093 120.805 257.381 120.805C271.349 120.805 278.986 109.265 278.986 99.2565C278.986 98.9283 278.979 98.6008 278.965 98.2756C280.448 97.21 281.736 95.8754 282.753 94.3564Z" fill="#F8FAFC" fill-opacity="0.5"/>
</g>
<path d="M260.883 114.016C257.816 113.96 255.206 112.028 254.161 109.322C254.505 109.368 254.856 109.393 255.214 109.393C255.929 109.393 256.622 109.297 257.28 109.119L257.264 108.632C254.005 107.979 251.526 105.174 251.38 101.77C252.344 102.238 253.421 102.517 254.556 102.553L255.431 102.581L254.702 102.095C252.731 100.782 251.435 98.54 251.435 95.9998C251.435 94.7846 251.731 93.64 252.255 92.6329C256.041 97.1087 261.6 100.041 267.853 100.354L268.185 100.371L268.109 100.048C267.984 99.5115 267.919 98.9529 267.919 98.379C267.919 94.3347 271.206 91.0552 275.262 91.0552C277.375 91.0552 279.283 91.945 280.623 93.3685L280.717 93.4691L280.853 93.4424C282.379 93.1424 283.824 92.6202 285.154 91.9105C284.544 93.3435 283.487 94.5412 282.16 95.334L282.317 95.7969C283.58 95.6473 284.795 95.3482 285.945 94.9149C285.034 96.1218 283.942 97.1909 282.715 98.0725L282.605 98.1514L282.611 98.2865C282.625 98.6079 282.632 98.9317 282.632 99.2565C282.632 109.157 275.079 120.555 261.277 120.555C257.417 120.555 253.801 119.528 250.676 117.74C250.932 117.752 251.189 117.759 251.448 117.759C255.064 117.759 258.391 116.528 261.032 114.463L261.588 114.029L260.883 114.016Z" fill="#0F172A" fill-opacity="0.9" stroke="url(#paint36_linear_27_7)" stroke-width="0.5"/>
<mask id="mask4_27_7" style="mask-type:luminance" maskUnits="userSpaceOnUse" x="313" y="7" width="45" height="44">
<path d="M357.167 7H313.167V51H357.167V7Z" fill="white"/>
</mask>
<g mask="url(#mask4_27_7)">
<path d="M353.5 14.3517C351.667 15.25 349.87 15.6149 348 16.1667C345.945 13.8475 342.898 13.7192 339.97 14.8155C337.042 15.9119 335.125 18.5922 335.167 21.6667V23.5C329.218 23.6522 323.919 20.9425 320.5 16.1667C320.5 16.1667 312.833 29.7939 327.833 36.3334C324.401 38.6195 320.979 40.1614 316.833 40C322.898 43.3055 329.507 44.4422 335.229 42.7812C341.792 40.8745 347.186 35.9557 349.256 28.5875C349.873 26.3466 350.18 24.0314 350.167 21.707C350.163 21.2505 352.935 16.625 353.5 14.3499V14.3517Z" fill="#0F172A" stroke="#CBD5E1" stroke-width="2.75" stroke-linecap="round" stroke-linejoin="round"/>
</g>
<mask id="mask5_27_7" style="mask-type:luminance" maskUnits="userSpaceOnUse" x="313" y="51" width="44" height="44">
<path d="M357 51H313V95H357V51Z" fill="white"/>
</mask>
<g mask="url(#mask5_27_7)">
<path d="M353.333 58.3517C351.5 59.25 349.703 59.6149 347.833 60.1667C345.778 57.8475 342.731 57.7192 339.803 58.8155C336.876 59.9119 334.958 62.5922 335 65.6667V67.5C329.051 67.6522 323.753 64.9425 320.333 60.1667C320.333 60.1667 312.666 73.7939 327.667 80.3334C324.235 82.6195 320.812 84.1614 316.667 84C322.731 87.3055 329.341 88.4422 335.062 86.7812C341.626 84.8745 347.019 79.9557 349.089 72.5875C349.707 70.3466 350.013 68.0314 350 65.707C349.997 65.2505 352.769 60.625 353.333 58.3499V58.3517Z" fill="#CBD5E1" stroke="#CBD5E1" stroke-width="2.75" stroke-linecap="round" stroke-linejoin="round"/>
</g>
<mask id="mask6_27_7" style="mask-type:luminance" maskUnits="userSpaceOnUse" x="437" y="7" width="44" height="44">
<path d="M481 7H437V51H481V7Z" fill="white"/>
</mask>
<g mask="url(#mask6_27_7)">
<path d="M449.833 25.3333V32.6667H455.333V45.5H462.667V32.6667H468.167L470 25.3333H462.667V21.6667C462.667 21.1804 462.86 20.7141 463.204 20.3703C463.547 20.0265 464.014 19.8333 464.5 19.8333H470V12.5H464.5C462.069 12.5 459.737 13.4658 458.018 15.1848C456.299 16.9039 455.333 19.2355 455.333 21.6667V25.3333H449.833Z" fill="#0F172A" stroke="#CBD5E1" stroke-width="2.75" stroke-linecap="round" stroke-linejoin="round"/>
</g>
<mask id="mask7_27_7" style="mask-type:luminance" maskUnits="userSpaceOnUse" x="437" y="51" width="44" height="44">
<path d="M481 51H437V95H481V51Z" fill="white"/>
</mask>
<g mask="url(#mask7_27_7)">
<path d="M449.833 69.3333V76.6667H455.333V89.5H462.667V76.6667H468.167L470 69.3333H462.667V65.6667C462.667 65.1804 462.86 64.7141 463.204 64.3703C463.547 64.0265 464.014 63.8333 464.5 63.8333H470V56.5H464.5C462.069 56.5 459.737 57.4658 458.018 59.1848C456.299 60.9039 455.333 63.2355 455.333 65.6667V69.3333H449.833Z" fill="#CBD5E1" stroke="#CBD5E1" stroke-width="2.75" stroke-linecap="round" stroke-linejoin="round"/>
</g>
<g clip-path="url(#clip0_27_7)">
<path d="M511 38.7621C503.117 41.3287 503.117 34.1787 500 33.2621L511 38.7621ZM522 42.4287V36.0121C522 34.1787 522.183 33.4454 521.083 32.3454C526.217 31.7954 531.167 29.7787 531.167 21.3454C531.164 19.1545 530.31 17.0505 528.783 15.4787C529.499 13.5757 529.433 11.4667 528.6 9.61208C528.6 9.61208 526.583 9.06208 522.183 11.9954C518.457 11.0248 514.543 11.0248 510.817 11.9954C506.417 9.06208 504.4 9.61208 504.4 9.61208C503.567 11.4667 503.501 13.5757 504.217 15.4787C502.69 17.0505 501.836 19.1545 501.833 21.3454C501.833 29.7787 506.783 31.7954 511.917 32.3454C510.817 33.4454 510.817 34.5454 511 36.0121V42.4287" fill="#0F172A"/>
<path d="M511 38.7621C503.117 41.3287 503.117 34.1787 500 33.2621L511 38.7621ZM522 42.4287V36.0121C522 34.1787 522.183 33.4454 521.083 32.3454C526.217 31.7954 531.167 29.7787 531.167 21.3454C531.164 19.1545 530.31 17.0505 528.783 15.4787C529.499 13.5757 529.433 11.4667 528.6 9.61208C528.6 9.61208 526.583 9.06208 522.183 11.9954C518.457 11.0248 514.543 11.0248 510.817 11.9954C506.417 9.06208 504.4 9.61208 504.4 9.61208C503.567 11.4667 503.501 13.5757 504.217 15.4787C502.69 17.0505 501.836 19.1545 501.833 21.3454C501.833 29.7787 506.783 31.7954 511.917 32.3454C510.817 33.4454 510.817 34.5454 511 36.0121V42.4287" fill="#0F172A"/>
<path d="M522 42.4287V36.0121C522 34.1787 522.183 33.4454 521.083 32.3454C526.217 31.7954 531.167 29.7787 531.167 21.3454C531.164 19.1545 530.31 17.0505 528.783 15.4787C529.499 13.5757 529.433 11.4667 528.6 9.61208C528.6 9.61208 526.583 9.06208 522.183 11.9954C518.457 11.0248 514.543 11.0248 510.817 11.9954C506.417 9.06208 504.4 9.61208 504.4 9.61208C503.567 11.4667 503.501 13.5757 504.217 15.4787C502.69 17.0505 501.836 19.1545 501.833 21.3454C501.833 29.7787 506.783 31.7954 511.917 32.3454C510.817 33.4454 510.817 34.5454 511 36.0121V42.4287M511 38.7621C503.117 41.3287 503.117 34.1787 500 33.2621L511 38.7621Z" stroke="#CBD5E1" stroke-width="2.75" stroke-linecap="round" stroke-linejoin="round"/>
</g>
<g clip-path="url(#clip1_27_7)">
<path d="M511 84.7621C503.117 87.3287 503.117 80.1787 500 79.2621L511 84.7621ZM522 88.4287V82.0121C522 80.1787 522.183 79.4454 521.083 78.3454C526.217 77.7954 531.167 75.7787 531.167 67.3454C531.164 65.1545 530.31 63.0505 528.783 61.4787C529.499 59.5757 529.433 57.4667 528.6 55.6121C528.6 55.6121 526.583 55.0621 522.183 57.9954C518.457 57.0248 514.543 57.0248 510.817 57.9954C506.417 55.0621 504.4 55.6121 504.4 55.6121C503.567 57.4667 503.501 59.5757 504.217 61.4787C502.69 63.0505 501.836 65.1545 501.833 67.3454C501.833 75.7787 506.783 77.7954 511.917 78.3454C510.817 79.4454 510.817 80.5454 511 82.0121V88.4287" fill="#0F172A"/>
<path d="M511 84.7621C503.117 87.3287 503.117 80.1787 500 79.2621L511 84.7621ZM522 88.4287V82.0121C522 80.1787 522.183 79.4454 521.083 78.3454C526.217 77.7954 531.167 75.7787 531.167 67.3454C531.164 65.1545 530.31 63.0505 528.783 61.4787C529.499 59.5757 529.433 57.4667 528.6 55.6121C528.6 55.6121 526.583 55.0621 522.183 57.9954C518.457 57.0248 514.543 57.0248 510.817 57.9954C506.417 55.0621 504.4 55.6121 504.4 55.6121C503.567 57.4667 503.501 59.5757 504.217 61.4787C502.69 63.0505 501.836 65.1545 501.833 67.3454C501.833 75.7787 506.783 77.7954 511.917 78.3454C510.817 79.4454 510.817 80.5454 511 82.0121V88.4287" fill="#CBD5E1"/>
<path d="M522 88.4287V82.0121C522 80.1787 522.183 79.4454 521.083 78.3454C526.217 77.7954 531.167 75.7787 531.167 67.3454C531.164 65.1545 530.31 63.0505 528.783 61.4787C529.499 59.5757 529.433 57.4667 528.6 55.6121C528.6 55.6121 526.583 55.0621 522.183 57.9954C518.457 57.0248 514.543 57.0248 510.817 57.9954C506.417 55.0621 504.4 55.6121 504.4 55.6121C503.567 57.4667 503.501 59.5757 504.217 61.4787C502.69 63.0505 501.836 65.1545 501.833 67.3454C501.833 75.7787 506.783 77.7954 511.917 78.3454C510.817 79.4454 510.817 80.5454 511 82.0121V88.4287M511 84.7621C503.117 87.3287 503.117 80.1787 500 79.2621L511 84.7621Z" stroke="#CBD5E1" stroke-width="2.75" stroke-linecap="round" stroke-linejoin="round"/>
</g>
<mask id="mask8_27_7" style="mask-type:luminance" maskUnits="userSpaceOnUse" x="550" y="7" width="45" height="44">
<path d="M594.5 51V7H550.5V51H594.5Z" fill="white"/>
</mask>
<g mask="url(#mask8_27_7)">
<path d="M556 29C556 38.1127 563.387 45.5 572.5 45.5C581.613 45.5 589 38.1127 589 29C589 19.8873 581.613 12.5 572.5 12.5C563.387 12.5 556 19.8873 556 29Z" stroke="#F8FAFC" stroke-width="2.75" stroke-linecap="round" stroke-linejoin="round"/>
<path d="M579.833 29L572.5 21.6667" stroke="#F8FAFC" stroke-width="2.75" stroke-linecap="round" stroke-linejoin="round"/>
<path d="M579.833 29H565.167" stroke="#F8FAFC" stroke-width="2.75" stroke-linecap="round" stroke-linejoin="round"/>
<path d="M572.5 36.3333L579.833 29" stroke="#F8FAFC" stroke-width="2.75" stroke-linecap="round" stroke-linejoin="round"/>
</g>
<mask id="mask9_27_7" style="mask-type:luminance" maskUnits="userSpaceOnUse" x="550" y="68" width="44" height="44">
<path d="M594 112V68H550V112H594Z" fill="white"/>
</mask>
<g mask="url(#mask9_27_7)">
<path d="M555.5 90C555.5 99.1127 562.887 106.5 572 106.5C581.113 106.5 588.5 99.1127 588.5 90C588.5 80.8873 581.113 73.5 572 73.5C562.887 73.5 555.5 80.8873 555.5 90Z" stroke="url(#paint37_linear_27_7)" stroke-width="2.75" stroke-linecap="round" stroke-linejoin="round"/>
<path d="M579.333 90L572 82.6667" stroke="url(#paint38_linear_27_7)" stroke-width="2.75" stroke-linecap="round" stroke-linejoin="round"/>
<path d="M579.333 90H564.667" stroke="url(#paint39_linear_27_7)" stroke-width="2.75" stroke-linecap="round" stroke-linejoin="round"/>
<path d="M572 97.3333L579.333 90" stroke="url(#paint40_linear_27_7)" stroke-width="2.75" stroke-linecap="round" stroke-linejoin="round"/>
</g>
<mask id="mask10_27_7" style="mask-type:luminance" maskUnits="userSpaceOnUse" x="562" y="145" width="20" height="20">
<path d="M582 165V145H562V165H582Z" fill="white"/>
</mask>
<g mask="url(#mask10_27_7)">
<path d="M564.5 155C564.5 159.142 567.858 162.5 572 162.5C576.142 162.5 579.5 159.142 579.5 155C579.5 150.858 576.142 147.5 572 147.5C567.858 147.5 564.5 150.858 564.5 155Z" stroke="url(#paint41_linear_27_7)" stroke-width="1.75" stroke-linecap="round" stroke-linejoin="round"/>
<path d="M575.333 155L572 151.667" stroke="url(#paint42_linear_27_7)" stroke-width="1.75" stroke-linecap="round" stroke-linejoin="round"/>
<path d="M575.333 155H568.667" stroke="url(#paint43_linear_27_7)" stroke-width="1.75" stroke-linecap="round" stroke-linejoin="round"/>
<path d="M572 158.333L575.333 155" stroke="url(#paint44_linear_27_7)" stroke-width="1.75" stroke-linecap="round" stroke-linejoin="round"/>
</g>
<mask id="mask11_27_7" style="mask-type:luminance" maskUnits="userSpaceOnUse" x="562" y="118" width="20" height="20">
<path d="M582 138V118H562V138H582Z" fill="white"/>
</mask>
<g mask="url(#mask11_27_7)">
<path d="M564.5 128C564.5 132.142 567.858 135.5 572 135.5C576.142 135.5 579.5 132.142 579.5 128C579.5 123.858 576.142 120.5 572 120.5C567.858 120.5 564.5 123.858 564.5 128Z" stroke="#F8FAFC" stroke-width="1.75" stroke-linecap="round" stroke-linejoin="round"/>
<path d="M575.333 128L572 124.667" stroke="#F8FAFC" stroke-width="1.75" stroke-linecap="round" stroke-linejoin="round"/>
<path d="M575.333 128H568.667" stroke="#F8FAFC" stroke-width="1.75" stroke-linecap="round" stroke-linejoin="round"/>
<path d="M572 131.333L575.333 128" stroke="#F8FAFC" stroke-width="1.75" stroke-linecap="round" stroke-linejoin="round"/>
</g>
<g clip-path="url(#clip2_27_7)">
<mask id="mask12_27_7" style="mask-type:luminance" maskUnits="userSpaceOnUse" x="612" y="7" width="44" height="44">
<path d="M656 7H612V51H656V7Z" fill="white"/>
</mask>
<g mask="url(#mask12_27_7)">
<path d="M626.667 29H619.333C618.321 29 617.5 29.8208 617.5 30.8333V41.8333C617.5 42.8459 618.321 43.6667 619.333 43.6667H626.667C627.679 43.6667 628.5 42.8459 628.5 41.8333V30.8333C628.5 29.8208 627.679 29 626.667 29Z" stroke="url(#paint45_linear_27_7)" stroke-width="2.75" stroke-linecap="round" stroke-linejoin="round"/>
<path d="M637.667 21.6666H630.333C629.321 21.6666 628.5 22.4874 628.5 23.5V41.8333C628.5 42.8458 629.321 43.6666 630.333 43.6666H637.667C638.679 43.6666 639.5 42.8458 639.5 41.8333V23.5C639.5 22.4874 638.679 21.6666 637.667 21.6666Z" stroke="url(#paint46_linear_27_7)" stroke-width="2.75" stroke-linecap="round" stroke-linejoin="round"/>
<path d="M648.667 14.3334H641.333C640.321 14.3334 639.5 15.1542 639.5 16.1667V41.8334C639.5 42.8459 640.321 43.6667 641.333 43.6667H648.667C649.679 43.6667 650.5 42.8459 650.5 41.8334V16.1667C650.5 15.1542 649.679 14.3334 648.667 14.3334Z" stroke="url(#paint47_linear_27_7)" stroke-width="2.75" stroke-linecap="round" stroke-linejoin="round"/>
<path d="M619.333 43.6666H645" stroke="url(#paint48_linear_27_7)" stroke-width="2.75" stroke-linecap="round" stroke-linejoin="round"/>
</g>
</g>
<path d="M626.667 90H619.333C618.321 90 617.5 90.8208 617.5 91.8333V102.833C617.5 103.846 618.321 104.667 619.333 104.667H626.667C627.679 104.667 628.5 103.846 628.5 102.833V91.8333C628.5 90.8208 627.679 90 626.667 90Z" stroke="url(#paint49_linear_27_7)" stroke-width="2.75" stroke-linecap="round" stroke-linejoin="round"/>
<path d="M637.667 82.6666H630.333C629.321 82.6666 628.5 83.4874 628.5 84.5V102.833C628.5 103.846 629.321 104.667 630.333 104.667H637.667C638.679 104.667 639.5 103.846 639.5 102.833V84.5C639.5 83.4874 638.679 82.6666 637.667 82.6666Z" stroke="url(#paint50_linear_27_7)" stroke-width="2.75" stroke-linecap="round" stroke-linejoin="round"/>
<path d="M648.667 75.3334H641.333C640.321 75.3334 639.5 76.1542 639.5 77.1667V102.833C639.5 103.846 640.321 104.667 641.333 104.667H648.667C649.679 104.667 650.5 103.846 650.5 102.833V77.1667C650.5 76.1542 649.679 75.3334 648.667 75.3334Z" stroke="url(#paint51_linear_27_7)" stroke-width="2.75" stroke-linecap="round" stroke-linejoin="round"/>
<path d="M619.333 104.667H645" stroke="url(#paint52_linear_27_7)" stroke-width="2.75" stroke-linecap="round" stroke-linejoin="round"/>
<path d="M681.333 80.5H677.167C676.591 80.5 676.125 80.9664 676.125 81.5416V87.7916C676.125 88.367 676.591 88.8334 677.167 88.8334H681.333C681.909 88.8334 682.375 88.367 682.375 87.7916V81.5416C682.375 80.9664 681.909 80.5 681.333 80.5Z" stroke="url(#paint53_linear_27_7)" stroke-width="2.75" stroke-linecap="round" stroke-linejoin="round"/>
<path d="M687.583 76.3333H683.417C682.841 76.3333 682.375 76.7997 682.375 77.375V87.7917C682.375 88.367 682.841 88.8333 683.417 88.8333H687.583C688.159 88.8333 688.625 88.367 688.625 87.7917V77.375C688.625 76.7997 688.159 76.3333 687.583 76.3333Z" stroke="url(#paint54_linear_27_7)" stroke-width="2.75" stroke-linecap="round" stroke-linejoin="round"/>
<path d="M693.833 72.1667H689.667C689.091 72.1667 688.625 72.6331 688.625 73.2084V87.7917C688.625 88.367 689.091 88.8334 689.667 88.8334H693.833C694.409 88.8334 694.875 88.367 694.875 87.7917V73.2084C694.875 72.6331 694.409 72.1667 693.833 72.1667Z" stroke="url(#paint55_linear_27_7)" stroke-width="2.75" stroke-linecap="round" stroke-linejoin="round"/>
<path d="M677.167 88.8333H691.75" stroke="url(#paint56_linear_27_7)" stroke-width="2.75" stroke-linecap="round" stroke-linejoin="round"/>
<g clip-path="url(#clip3_27_7)">
<path d="M681.333 19.5H677.167C676.591 19.5 676.125 19.9664 676.125 20.5417V26.7917C676.125 27.367 676.591 27.8333 677.167 27.8333H681.333C681.909 27.8333 682.375 27.367 682.375 26.7917V20.5417C682.375 19.9664 681.909 19.5 681.333 19.5Z" stroke="url(#paint57_linear_27_7)" stroke-width="2.75" stroke-linecap="round" stroke-linejoin="round"/>
<path d="M687.583 15.3333H683.417C682.841 15.3333 682.375 15.7997 682.375 16.375V26.7916C682.375 27.3669 682.841 27.8333 683.417 27.8333H687.583C688.159 27.8333 688.625 27.3669 688.625 26.7916V16.375C688.625 15.7997 688.159 15.3333 687.583 15.3333Z" stroke="url(#paint58_linear_27_7)" stroke-width="2.75" stroke-linecap="round" stroke-linejoin="round"/>
<path d="M693.833 11.1667H689.667C689.091 11.1667 688.625 11.6331 688.625 12.2084V26.7917C688.625 27.367 689.091 27.8334 689.667 27.8334H693.833C694.409 27.8334 694.875 27.367 694.875 26.7917V12.2084C694.875 11.6331 694.409 11.1667 693.833 11.1667Z" stroke="url(#paint59_linear_27_7)" stroke-width="2.75" stroke-linecap="round" stroke-linejoin="round"/>
<path d="M677.167 27.8333H691.75" stroke="url(#paint60_linear_27_7)" stroke-width="2.75" stroke-linecap="round" stroke-linejoin="round"/>
</g>
<g clip-path="url(#clip4_27_7)">
<path d="M408 13.3333H386C383.975 13.3333 382.333 14.9749 382.333 17V39C382.333 41.025 383.975 42.6666 386 42.6666H408C410.025 42.6666 411.667 41.025 411.667 39V17C411.667 14.9749 410.025 13.3333 408 13.3333Z" fill="#0F172A" stroke="#CBD5E1" stroke-width="2.75" stroke-linecap="round" stroke-linejoin="round"/>
<path d="M389.667 26.1667V35.3334" stroke="#CBD5E1" stroke-width="2.75" stroke-linecap="round" stroke-linejoin="round"/>
<path d="M389.667 20.6667V20.685" stroke="#CBD5E1" stroke-width="2.75" stroke-linecap="round" stroke-linejoin="round"/>
<path d="M397 35.3334V26.1667" stroke="#CBD5E1" stroke-width="2.75" stroke-linecap="round" stroke-linejoin="round"/>
<path d="M404.333 35.3334V29.8334C404.333 28.8609 403.947 27.9283 403.259 27.2406C402.572 26.553 401.639 26.1667 400.667 26.1667C399.694 26.1667 398.762 26.553 398.074 27.2406C397.386 27.9283 397 28.8609 397 29.8334" stroke="#CBD5E1" stroke-width="2.75" stroke-linecap="round" stroke-linejoin="round"/>
</g>
<g clip-path="url(#clip5_27_7)">
<path d="M408 58.3333H386C383.975 58.3333 382.333 59.9749 382.333 62V84C382.333 86.025 383.975 87.6666 386 87.6666H408C410.025 87.6666 411.667 86.025 411.667 84V62C411.667 59.9749 410.025 58.3333 408 58.3333Z" fill="#CBD5E1" stroke="#CBD5E1" stroke-width="2.75" stroke-linecap="round" stroke-linejoin="round"/>
<path d="M389.667 71.1667V80.3334" stroke="#0F172A" stroke-width="2.75" stroke-linecap="round" stroke-linejoin="round"/>
<path d="M389.667 65.6667V65.685" stroke="#0F172A" stroke-width="2.75" stroke-linecap="round" stroke-linejoin="round"/>
<path d="M397 80.3334V71.1667" stroke="#0F172A" stroke-width="2.75" stroke-linecap="round" stroke-linejoin="round"/>
<path d="M404.333 80.3334V74.8334C404.333 73.8609 403.947 72.9283 403.259 72.2406C402.572 71.553 401.639 71.1667 400.667 71.1667C399.694 71.1667 398.762 71.553 398.074 72.2406C397.386 72.9283 397 73.8609 397 74.8334" stroke="#0F172A" stroke-width="2.75" stroke-linecap="round" stroke-linejoin="round"/>
</g>
<path d="M513.529 109.366C511 110.19 511 107.895 510 107.601L513.529 109.366ZM517.059 110.543V108.484C517.059 107.895 517.118 107.66 516.765 107.307C518.412 107.131 520 106.484 520 103.778C519.999 103.075 519.725 102.4 519.235 101.895C519.465 101.285 519.444 100.608 519.176 100.013C519.176 100.013 518.529 99.8367 517.118 100.778C515.922 100.466 514.666 100.466 513.471 100.778C512.059 99.8367 511.412 100.013 511.412 100.013C511.144 100.608 511.123 101.285 511.353 101.895C510.863 102.4 510.589 103.075 510.588 103.778C510.588 106.484 512.176 107.131 513.824 107.307C513.471 107.66 513.471 108.013 513.529 108.484V110.543" fill="#0F172A"/>
<path d="M517.059 110.543V108.484C517.059 107.895 517.118 107.66 516.765 107.307C518.412 107.131 520 106.484 520 103.778C519.999 103.075 519.725 102.4 519.235 101.895C519.465 101.285 519.444 100.608 519.176 100.013C519.176 100.013 518.529 99.8367 517.118 100.778C515.922 100.466 514.666 100.466 513.471 100.778C512.059 99.8367 511.412 100.013 511.412 100.013C511.144 100.608 511.123 101.285 511.353 101.895C510.863 102.4 510.589 103.075 510.588 103.778C510.588 106.484 512.176 107.131 513.824 107.307C513.471 107.66 513.471 108.013 513.529 108.484V110.543M513.529 109.366C511 110.19 511 107.895 510 107.601L513.529 109.366Z" stroke="#CBD5E1" stroke-linecap="round" stroke-linejoin="round"/>
<g clip-path="url(#clip6_27_7)">
<path d="M456.375 104.25V106.75H458.25V111.125H460.75V106.75H462.625L463.25 104.25H460.75V103C460.75 102.834 460.816 102.675 460.933 102.558C461.05 102.441 461.209 102.375 461.375 102.375H463.25V99.875H461.375C460.546 99.875 459.751 100.204 459.165 100.79C458.579 101.376 458.25 102.171 458.25 103V104.25H456.375Z" fill="#0F172A" stroke="#CBD5E1" stroke-linecap="round" stroke-linejoin="round"/>
</g>
<g clip-path="url(#clip7_27_7)">
<path d="M341.75 99.5063C341.125 99.8125 340.512 99.9369 339.875 100.125C339.174 99.3344 338.136 99.2906 337.137 99.6644C336.139 100.038 335.486 100.952 335.5 102V102.625C333.472 102.677 331.666 101.753 330.5 100.125C330.5 100.125 327.886 104.771 333 107C331.83 107.779 330.663 108.305 329.25 108.25C331.317 109.377 333.571 109.764 335.521 109.198C337.759 108.548 339.597 106.871 340.303 104.359C340.514 103.595 340.618 102.806 340.614 102.014C340.612 101.858 341.557 100.281 341.75 99.5056V99.5063Z" fill="#0F172A" stroke="#CBD5E1" stroke-linecap="round" stroke-linejoin="round"/>
</g>
<g clip-path="url(#clip8_27_7)">
<path d="M401.25 100.5H393.75C393.06 100.5 392.5 101.06 392.5 101.75V109.25C392.5 109.94 393.06 110.5 393.75 110.5H401.25C401.94 110.5 402.5 109.94 402.5 109.25V101.75C402.5 101.06 401.94 100.5 401.25 100.5Z" fill="#0F172A" stroke="#CBD5E1" stroke-linecap="round" stroke-linejoin="round"/>
<path d="M395 104.875V108" stroke="#CBD5E1" stroke-linecap="round" stroke-linejoin="round"/>
<path d="M395 103V103.006" stroke="#CBD5E1" stroke-linecap="round" stroke-linejoin="round"/>
<path d="M397.5 108V104.875" stroke="#CBD5E1" stroke-linecap="round" stroke-linejoin="round"/>
<path d="M400 108V106.125C400 105.793 399.868 105.476 399.634 105.241C399.399 105.007 399.082 104.875 398.75 104.875C398.418 104.875 398.101 105.007 397.866 105.241C397.632 105.476 397.5 105.793 397.5 106.125" stroke="#CBD5E1" stroke-linecap="round" stroke-linejoin="round"/>
</g>
<path d="M293 138V136H311V138H293ZM293 133V131H311V133H293ZM293 128V126H311V128H293Z" fill="white"/>
<path d="M338.4 140L337 138.6L342.6 133L337 127.4L338.4 126L344 131.6L349.6 126L351 127.4L345.4 133L351 138.6L349.6 140L344 134.4L338.4 140Z" fill="white"/>
<path d="M378.687 128.282C378.592 128.192 378.479 128.122 378.357 128.075C378.234 128.028 378.103 128.006 377.972 128.01C377.841 128.013 377.711 128.043 377.591 128.097C377.472 128.15 377.363 128.227 377.273 128.322C377.183 128.418 377.113 128.53 377.066 128.653C377.019 128.776 376.997 128.906 377 129.038C377.004 129.169 377.034 129.298 377.087 129.418C377.141 129.538 377.218 129.646 377.313 129.736L386.313 138.236C386.499 138.412 386.745 138.51 387 138.51C387.256 138.51 387.502 138.412 387.687 138.236L396.688 129.736C396.786 129.647 396.865 129.539 396.92 129.418C396.975 129.298 397.006 129.168 397.011 129.035C397.016 128.903 396.994 128.771 396.947 128.647C396.901 128.523 396.83 128.41 396.739 128.313C396.648 128.217 396.539 128.14 396.418 128.086C396.297 128.032 396.166 128.003 396.034 128C395.901 127.997 395.769 128.021 395.646 128.069C395.523 128.118 395.41 128.19 395.315 128.282L387 136.134L378.687 128.282Z" fill="#F8FAFC"/>
<defs>
<filter id="filter0_f_27_7" x="0.778992" y="1.77917" width="68.4416" height="68.4416" filterUnits="userSpaceOnUse" color-interpolation-filters="sRGB">
<feFlood flood-opacity="0" result="BackgroundImageFix"/>
<feBlend mode="normal" in="SourceGraphic" in2="BackgroundImageFix" result="shape"/>
<feGaussianBlur stdDeviation="2.5" result="effect1_foregroundBlur_27_7"/>
</filter>
<filter id="filter1_f_27_7" x="5.13" y="15.0909" width="55.454" height="44.9351" filterUnits="userSpaceOnUse" color-interpolation-filters="sRGB">
<feFlood flood-opacity="0" result="BackgroundImageFix"/>
<feBlend mode="normal" in="SourceGraphic" in2="BackgroundImageFix" result="shape"/>
<feGaussianBlur stdDeviation="5" result="effect1_foregroundBlur_27_7"/>
</filter>
<filter id="filter2_f_27_7" x="13.2645" y="140.265" width="39.4708" height="39.4708" filterUnits="userSpaceOnUse" color-interpolation-filters="sRGB">
<feFlood flood-opacity="0" result="BackgroundImageFix"/>
<feBlend mode="normal" in="SourceGraphic" in2="BackgroundImageFix" result="shape"/>
<feGaussianBlur stdDeviation="2.5" result="effect1_foregroundBlur_27_7"/>
</filter>
<filter id="filter3_f_27_7" x="13.065" y="144.545" width="37.727" height="32.4675" filterUnits="userSpaceOnUse" color-interpolation-filters="sRGB">
<feFlood flood-opacity="0" result="BackgroundImageFix"/>
<feBlend mode="normal" in="SourceGraphic" in2="BackgroundImageFix" result="shape"/>
<feGaussianBlur stdDeviation="5" result="effect1_foregroundBlur_27_7"/>
</filter>
<filter id="filter4_f_27_7" x="0.778992" y="70.7792" width="68.4416" height="68.4416" filterUnits="userSpaceOnUse" color-interpolation-filters="sRGB">
<feFlood flood-opacity="0" result="BackgroundImageFix"/>
<feBlend mode="normal" in="SourceGraphic" in2="BackgroundImageFix" result="shape"/>
<feGaussianBlur stdDeviation="2.5" result="effect1_foregroundBlur_27_7"/>
</filter>
<filter id="filter5_f_27_7" x="5.13" y="84.0909" width="55.454" height="44.9351" filterUnits="userSpaceOnUse" color-interpolation-filters="sRGB">
<feFlood flood-opacity="0" result="BackgroundImageFix"/>
<feBlend mode="normal" in="SourceGraphic" in2="BackgroundImageFix" result="shape"/>
<feGaussianBlur stdDeviation="5" result="effect1_foregroundBlur_27_7"/>
</filter>
<filter id="filter6_f_27_7" x="80.779" y="6.77917" width="62.4416" height="62.4416" filterUnits="userSpaceOnUse" color-interpolation-filters="sRGB">
<feFlood flood-opacity="0" result="BackgroundImageFix"/>
<feBlend mode="normal" in="SourceGraphic" in2="BackgroundImageFix" result="shape"/>
<feGaussianBlur stdDeviation="1" result="effect1_foregroundBlur_27_7"/>
</filter>
<filter id="filter7_f_27_7" x="92.88" y="12.8214" width="36.494" height="57.9216" filterUnits="userSpaceOnUse" color-interpolation-filters="sRGB">
<feFlood flood-opacity="0" result="BackgroundImageFix"/>
<feBlend mode="normal" in="SourceGraphic" in2="BackgroundImageFix" result="shape"/>
<feGaussianBlur stdDeviation="2.5" result="effect1_foregroundBlur_27_7"/>
</filter>
<filter id="filter8_f_27_7" x="95.2645" y="143.265" width="33.4708" height="33.4708" filterUnits="userSpaceOnUse" color-interpolation-filters="sRGB">
<feFlood flood-opacity="0" result="BackgroundImageFix"/>
<feBlend mode="normal" in="SourceGraphic" in2="BackgroundImageFix" result="shape"/>
<feGaussianBlur stdDeviation="1" result="effect1_foregroundBlur_27_7"/>
</filter>
<filter id="filter9_f_27_7" x="99.94" y="144.911" width="23.247" height="33.9608" filterUnits="userSpaceOnUse" color-interpolation-filters="sRGB">
<feFlood flood-opacity="0" result="BackgroundImageFix"/>
<feBlend mode="normal" in="SourceGraphic" in2="BackgroundImageFix" result="shape"/>
<feGaussianBlur stdDeviation="2.5" result="effect1_foregroundBlur_27_7"/>
</filter>
<filter id="filter10_f_27_7" x="80.779" y="74.7792" width="62.4416" height="62.4416" filterUnits="userSpaceOnUse" color-interpolation-filters="sRGB">
<feFlood flood-opacity="0" result="BackgroundImageFix"/>
<feBlend mode="normal" in="SourceGraphic" in2="BackgroundImageFix" result="shape"/>
<feGaussianBlur stdDeviation="1" result="effect1_foregroundBlur_27_7"/>
</filter>
<filter id="filter11_f_27_7" x="154.779" y="0.779175" width="68.4416" height="68.4416" filterUnits="userSpaceOnUse" color-interpolation-filters="sRGB">
<feFlood flood-opacity="0" result="BackgroundImageFix"/>
<feBlend mode="normal" in="SourceGraphic" in2="BackgroundImageFix" result="shape"/>
<feGaussianBlur stdDeviation="2.5" result="effect1_foregroundBlur_27_7"/>
</filter>
<filter id="filter12_f_27_7" x="160.688" y="9.41553" width="53.507" height="53.5065" filterUnits="userSpaceOnUse" color-interpolation-filters="sRGB">
<feFlood flood-opacity="0" result="BackgroundImageFix"/>
<feBlend mode="normal" in="SourceGraphic" in2="BackgroundImageFix" result="shape"/>
<feGaussianBlur stdDeviation="5" result="effect1_foregroundBlur_27_7"/>
</filter>
<filter id="filter13_f_27_7" x="169.265" y="140.265" width="39.4708" height="39.4708" filterUnits="userSpaceOnUse" color-interpolation-filters="sRGB">
<feFlood flood-opacity="0" result="BackgroundImageFix"/>
<feBlend mode="normal" in="SourceGraphic" in2="BackgroundImageFix" result="shape"/>
<feGaussianBlur stdDeviation="2.5" result="effect1_foregroundBlur_27_7"/>
</filter>
<filter id="filter14_f_27_7" x="169.844" y="142.208" width="36.7535" height="36.7532" filterUnits="userSpaceOnUse" color-interpolation-filters="sRGB">
<feFlood flood-opacity="0" result="BackgroundImageFix"/>
<feBlend mode="normal" in="SourceGraphic" in2="BackgroundImageFix" result="shape"/>
<feGaussianBlur stdDeviation="5" result="effect1_foregroundBlur_27_7"/>
</filter>
<filter id="filter15_f_27_7" x="154.779" y="71.7792" width="68.4416" height="68.4416" filterUnits="userSpaceOnUse" color-interpolation-filters="sRGB">
<feFlood flood-opacity="0" result="BackgroundImageFix"/>
<feBlend mode="normal" in="SourceGraphic" in2="BackgroundImageFix" result="shape"/>
<feGaussianBlur stdDeviation="2.5" result="effect1_foregroundBlur_27_7"/>
</filter>
<filter id="filter16_f_27_7" x="231.779" y="2.77917" width="68.4416" height="68.4416" filterUnits="userSpaceOnUse" color-interpolation-filters="sRGB">
<feFlood flood-opacity="0" result="BackgroundImageFix"/>
<feBlend mode="normal" in="SourceGraphic" in2="BackgroundImageFix" result="shape"/>
<feGaussianBlur stdDeviation="2.5" result="effect1_foregroundBlur_27_7"/>
</filter>
<filter id="filter17_f_27_7" x="240.74" y="16.8052" width="47.013" height="39.9998" filterUnits="userSpaceOnUse" color-interpolation-filters="sRGB">
<feFlood flood-opacity="0" result="BackgroundImageFix"/>
<feBlend mode="normal" in="SourceGraphic" in2="BackgroundImageFix" result="shape"/>
<feGaussianBlur stdDeviation="2.5" result="effect1_foregroundBlur_27_7"/>
</filter>
<filter id="filter18_f_27_7" x="244.265" y="140.265" width="39.4708" height="39.4708" filterUnits="userSpaceOnUse" color-interpolation-filters="sRGB">
<feFlood flood-opacity="0" result="BackgroundImageFix"/>
<feBlend mode="normal" in="SourceGraphic" in2="BackgroundImageFix" result="shape"/>
<feGaussianBlur stdDeviation="2.5" result="effect1_foregroundBlur_27_7"/>
</filter>
<filter id="filter19_f_27_7" x="248.87" y="147.403" width="28.5065" height="24.9999" filterUnits="userSpaceOnUse" color-interpolation-filters="sRGB">
<feFlood flood-opacity="0" result="BackgroundImageFix"/>
<feBlend mode="normal" in="SourceGraphic" in2="BackgroundImageFix" result="shape"/>
<feGaussianBlur stdDeviation="2.5" result="effect1_foregroundBlur_27_7"/>
</filter>
<filter id="filter20_f_27_7" x="231.779" y="71.7792" width="68.4416" height="68.4416" filterUnits="userSpaceOnUse" color-interpolation-filters="sRGB">
<feFlood flood-opacity="0" result="BackgroundImageFix"/>
<feBlend mode="normal" in="SourceGraphic" in2="BackgroundImageFix" result="shape"/>
<feGaussianBlur stdDeviation="2.5" result="effect1_foregroundBlur_27_7"/>
</filter>
<filter id="filter21_f_27_7" x="240.74" y="85.8052" width="47.013" height="39.9998" filterUnits="userSpaceOnUse" color-interpolation-filters="sRGB">
<feFlood flood-opacity="0" result="BackgroundImageFix"/>
<feBlend mode="normal" in="SourceGraphic" in2="BackgroundImageFix" result="shape"/>
<feGaussianBlur stdDeviation="2.5" result="effect1_foregroundBlur_27_7"/>
</filter>
<linearGradient id="paint0_linear_27_7" x1="33.831" y1="64.442" x2="35" y2="9.3117" gradientUnits="userSpaceOnUse">
<stop stop-color="#A70000"/>
<stop offset="1" stop-color="#FF9191"/>
</linearGradient>
<linearGradient id="paint1_linear_27_7" x1="35" y1="13.2077" x2="35" y2="58.792" gradientUnits="userSpaceOnUse">
<stop stop-color="#FF0000" stop-opacity="0.67"/>
<stop offset="1" stop-color="#FF0000"/>
</linearGradient>
<linearGradient id="paint2_linear_27_7" x1="35" y1="6.77917" x2="35" y2="65.221" gradientUnits="userSpaceOnUse">
<stop stop-color="#FF8888"/>
<stop offset="1" stop-color="#D60000"/>
</linearGradient>
<linearGradient id="paint3_linear_27_7" x1="34.805" y1="23.5325" x2="34.805" y2="48.468" gradientUnits="userSpaceOnUse">
<stop stop-color="white"/>
<stop offset="1" stop-color="white" stop-opacity="0"/>
</linearGradient>
<linearGradient id="paint4_linear_27_7" x1="32.4155" y1="174.221" x2="33" y2="146.656" gradientUnits="userSpaceOnUse">
<stop stop-color="#A70000"/>
<stop offset="1" stop-color="#FF9191"/>
</linearGradient>
<linearGradient id="paint5_linear_27_7" x1="33" y1="148.604" x2="33" y2="171.396" gradientUnits="userSpaceOnUse">
<stop stop-color="#FF0000" stop-opacity="0.67"/>
<stop offset="1" stop-color="#FF0000"/>
</linearGradient>
<linearGradient id="paint6_linear_27_7" x1="33" y1="145.39" x2="33" y2="174.61" gradientUnits="userSpaceOnUse">
<stop stop-color="#FF8888"/>
<stop offset="1" stop-color="#D60000"/>
</linearGradient>
<linearGradient id="paint7_linear_27_7" x1="32.9025" y1="153.766" x2="32.9025" y2="166.234" gradientUnits="userSpaceOnUse">
<stop stop-color="white"/>
<stop offset="1" stop-color="white" stop-opacity="0"/>
</linearGradient>
<linearGradient id="paint8_linear_27_7" x1="110.831" y1="66.442" x2="112" y2="11.3117" gradientUnits="userSpaceOnUse">
<stop stop-color="#004DAE"/>
<stop offset="0.869762" stop-color="#4497FF"/>
</linearGradient>
<linearGradient id="paint9_linear_27_7" x1="112" y1="15.2077" x2="112" y2="60.792" gradientUnits="userSpaceOnUse">
<stop stop-color="#1778F2"/>
<stop offset="1" stop-color="#1778F2" stop-opacity="0.62"/>
</linearGradient>
<linearGradient id="paint10_linear_27_7" x1="112" y1="8.77917" x2="112" y2="67.221" gradientUnits="userSpaceOnUse">
<stop stop-color="#7CB4FB"/>
<stop offset="1" stop-color="#0B6280"/>
</linearGradient>
<linearGradient id="paint11_linear_27_7" x1="113.465" y1="17.0422" x2="113.465" y2="67.992" gradientUnits="userSpaceOnUse">
<stop stop-color="white"/>
<stop offset="1" stop-color="white" stop-opacity="0"/>
</linearGradient>
<linearGradient id="paint12_linear_27_7" x1="111.415" y1="174.221" x2="112" y2="146.656" gradientUnits="userSpaceOnUse">
<stop stop-color="#004DAE"/>
<stop offset="0.869762" stop-color="#4497FF"/>
</linearGradient>
<linearGradient id="paint13_linear_27_7" x1="112" y1="148.604" x2="112" y2="171.396" gradientUnits="userSpaceOnUse">
<stop stop-color="#1778F2"/>
<stop offset="1" stop-color="#1778F2" stop-opacity="0.62"/>
</linearGradient>
<linearGradient id="paint14_linear_27_7" x1="112" y1="145.39" x2="112" y2="174.61" gradientUnits="userSpaceOnUse">
<stop stop-color="#7CB4FB"/>
<stop offset="1" stop-color="#0B6280"/>
</linearGradient>
<linearGradient id="paint15_linear_27_7" x1="112.733" y1="149.521" x2="112.733" y2="174.996" gradientUnits="userSpaceOnUse">
<stop stop-color="white"/>
<stop offset="1" stop-color="white" stop-opacity="0"/>
</linearGradient>
<linearGradient id="paint16_linear_27_7" x1="187.831" y1="63.442" x2="189" y2="8.3117" gradientUnits="userSpaceOnUse">
<stop stop-color="#004081"/>
<stop offset="1" stop-color="#5BA9F8"/>
</linearGradient>
<linearGradient id="paint17_linear_27_7" x1="189" y1="12.2077" x2="189" y2="57.792" gradientUnits="userSpaceOnUse">
<stop stop-color="#0A66C2" stop-opacity="0.56"/>
<stop offset="1" stop-color="#0A66C2"/>
</linearGradient>
<linearGradient id="paint18_linear_27_7" x1="189" y1="5.77917" x2="189" y2="64.221" gradientUnits="userSpaceOnUse">
<stop stop-color="#59ACFF"/>
<stop offset="1" stop-color="#013162"/>
</linearGradient>
<linearGradient id="paint19_linear_27_7" x1="190.558" y1="17.4675" x2="190.558" y2="50.974" gradientUnits="userSpaceOnUse">
<stop stop-color="white"/>
<stop offset="1" stop-color="white" stop-opacity="0"/>
</linearGradient>
<linearGradient id="paint20_linear_27_7" x1="188.415" y1="174.221" x2="189" y2="146.656" gradientUnits="userSpaceOnUse">
<stop stop-color="#004081"/>
<stop offset="1" stop-color="#5BA9F8"/>
</linearGradient>
<linearGradient id="paint21_linear_27_7" x1="189" y1="148.604" x2="189" y2="171.396" gradientUnits="userSpaceOnUse">
<stop stop-color="#0A66C2" stop-opacity="0.56"/>
<stop offset="1" stop-color="#0A66C2"/>
</linearGradient>
<linearGradient id="paint22_linear_27_7" x1="189" y1="145.39" x2="189" y2="174.61" gradientUnits="userSpaceOnUse">
<stop stop-color="#59ACFF"/>
<stop offset="1" stop-color="#013162"/>
</linearGradient>
<linearGradient id="paint23_linear_27_7" x1="189.779" y1="151.234" x2="189.779" y2="167.987" gradientUnits="userSpaceOnUse">
<stop stop-color="white"/>
<stop offset="1" stop-color="white" stop-opacity="0"/>
</linearGradient>
<linearGradient id="paint24_linear_27_7" x1="264.831" y1="65.442" x2="266" y2="10.3117" gradientUnits="userSpaceOnUse">
<stop stop-color="#0065A3"/>
<stop offset="0.869762" stop-color="#58C0FF"/>
</linearGradient>
<linearGradient id="paint25_linear_27_7" x1="266" y1="14.2077" x2="266" y2="59.792" gradientUnits="userSpaceOnUse">
<stop stop-color="#1DA1F2"/>
<stop offset="1" stop-color="#1DA1F2" stop-opacity="0.6"/>
</linearGradient>
<linearGradient id="paint26_linear_27_7" x1="266" y1="7.77917" x2="266" y2="66.221" gradientUnits="userSpaceOnUse">
<stop stop-color="#1DA1F2"/>
<stop offset="1" stop-color="#046EAE"/>
</linearGradient>
<linearGradient id="paint27_linear_27_7" x1="268.143" y1="21.8052" x2="268.143" y2="51.805" gradientUnits="userSpaceOnUse">
<stop stop-color="white"/>
<stop offset="1" stop-color="white" stop-opacity="0"/>
</linearGradient>
<linearGradient id="paint28_linear_27_7" x1="263.415" y1="174.221" x2="264" y2="146.656" gradientUnits="userSpaceOnUse">
<stop stop-color="#0065A3"/>
<stop offset="0.869762" stop-color="#58C0FF"/>
</linearGradient>
<linearGradient id="paint29_linear_27_7" x1="264" y1="148.604" x2="264" y2="171.396" gradientUnits="userSpaceOnUse">
<stop stop-color="#1DA1F2"/>
<stop offset="1" stop-color="#1DA1F2" stop-opacity="0.6"/>
</linearGradient>
<linearGradient id="paint30_linear_27_7" x1="264" y1="145.39" x2="264" y2="174.61" gradientUnits="userSpaceOnUse">
<stop stop-color="#1DA1F2"/>
<stop offset="1" stop-color="#046EAE"/>
</linearGradient>
<linearGradient id="paint31_linear_27_7" x1="265.072" y1="152.403" x2="265.072" y2="167.402" gradientUnits="userSpaceOnUse">
<stop stop-color="white"/>
<stop offset="1" stop-color="white" stop-opacity="0"/>
</linearGradient>
<linearGradient id="paint32_linear_27_7" x1="264.831" y1="134.442" x2="266" y2="79.3117" gradientUnits="userSpaceOnUse">
<stop stop-color="#F8FAFC"/>
<stop offset="0.869762" stop-color="#F8FAFC"/>
</linearGradient>
<linearGradient id="paint33_linear_27_7" x1="266" y1="83.2077" x2="266" y2="128.792" gradientUnits="userSpaceOnUse">
<stop stop-color="#F8FAFC"/>
<stop offset="1" stop-color="#F8FAFC" stop-opacity="0.6"/>
</linearGradient>
<linearGradient id="paint34_linear_27_7" x1="266" y1="83.4027" x2="266" y2="128.597" gradientUnits="userSpaceOnUse">
<stop stop-color="#F8FAFC"/>
<stop offset="1" stop-color="#F8FAFC" stop-opacity="0.6"/>
</linearGradient>
<linearGradient id="paint35_linear_27_7" x1="266" y1="76.7792" x2="266" y2="135.221" gradientUnits="userSpaceOnUse">
<stop stop-color="#F8FAFC"/>
<stop offset="1" stop-color="#F8FAFC"/>
</linearGradient>
<linearGradient id="paint36_linear_27_7" x1="268.143" y1="90.8052" x2="268.143" y2="120.805" gradientUnits="userSpaceOnUse">
<stop stop-color="#0F172A"/>
<stop offset="1" stop-color="#0F172A" stop-opacity="0"/>
</linearGradient>
<linearGradient id="paint37_linear_27_7" x1="572" y1="73.5" x2="572" y2="106.5" gradientUnits="userSpaceOnUse">
<stop stop-color="#22D3EE"/>
<stop offset="1" stop-color="#0EA5E9"/>
</linearGradient>
<linearGradient id="paint38_linear_27_7" x1="575.667" y1="82.6667" x2="575.667" y2="90" gradientUnits="userSpaceOnUse">
<stop stop-color="#22D3EE"/>
<stop offset="1" stop-color="#0EA5E9"/>
</linearGradient>
<linearGradient id="paint39_linear_27_7" x1="572" y1="90" x2="572" y2="91" gradientUnits="userSpaceOnUse">
<stop stop-color="#22D3EE"/>
<stop offset="1" stop-color="#0EA5E9"/>
</linearGradient>
<linearGradient id="paint40_linear_27_7" x1="575.667" y1="90" x2="575.667" y2="97.3333" gradientUnits="userSpaceOnUse">
<stop stop-color="#22D3EE"/>
<stop offset="1" stop-color="#0EA5E9"/>
</linearGradient>
<linearGradient id="paint41_linear_27_7" x1="572" y1="147.5" x2="572" y2="162.5" gradientUnits="userSpaceOnUse">
<stop stop-color="#22D3EE"/>
<stop offset="1" stop-color="#0EA5E9"/>
</linearGradient>
<linearGradient id="paint42_linear_27_7" x1="573.667" y1="151.667" x2="573.667" y2="155" gradientUnits="userSpaceOnUse">
<stop stop-color="#22D3EE"/>
<stop offset="1" stop-color="#0EA5E9"/>
</linearGradient>
<linearGradient id="paint43_linear_27_7" x1="572" y1="155" x2="572" y2="156" gradientUnits="userSpaceOnUse">
<stop stop-color="#22D3EE"/>
<stop offset="1" stop-color="#0EA5E9"/>
</linearGradient>
<linearGradient id="paint44_linear_27_7" x1="573.667" y1="155" x2="573.667" y2="158.333" gradientUnits="userSpaceOnUse">
<stop stop-color="#22D3EE"/>
<stop offset="1" stop-color="#0EA5E9"/>
</linearGradient>
<linearGradient id="paint45_linear_27_7" x1="623" y1="29" x2="617.5" y2="29" gradientUnits="userSpaceOnUse">
<stop stop-color="#22D3EE"/>
<stop offset="1" stop-color="#0EA5E9"/>
</linearGradient>
<linearGradient id="paint46_linear_27_7" x1="634" y1="21.6666" x2="628.5" y2="21.6666" gradientUnits="userSpaceOnUse">
<stop stop-color="#22D3EE"/>
<stop offset="1" stop-color="#0EA5E9"/>
</linearGradient>
<linearGradient id="paint47_linear_27_7" x1="645" y1="14.3334" x2="639.5" y2="14.3334" gradientUnits="userSpaceOnUse">
<stop stop-color="#22D3EE"/>
<stop offset="1" stop-color="#0EA5E9"/>
</linearGradient>
<linearGradient id="paint48_linear_27_7" x1="nan" y1="nan" x2="nan" y2="nan" gradientUnits="userSpaceOnUse">
<stop stop-color="#22D3EE"/>
<stop offset="1" stop-color="#0EA5E9"/>
</linearGradient>
<linearGradient id="paint49_linear_27_7" x1="623" y1="90" x2="617.5" y2="90" gradientUnits="userSpaceOnUse">
<stop stop-color="#F8FAFC"/>
<stop offset="1" stop-color="#F8FAFC"/>
</linearGradient>
<linearGradient id="paint50_linear_27_7" x1="634" y1="82.6666" x2="628.5" y2="82.6666" gradientUnits="userSpaceOnUse">
<stop stop-color="#F8FAFC"/>
<stop offset="1" stop-color="#F8FAFC"/>
</linearGradient>
<linearGradient id="paint51_linear_27_7" x1="645" y1="75.3334" x2="639.5" y2="75.3334" gradientUnits="userSpaceOnUse">
<stop stop-color="#F8FAFC"/>
<stop offset="1" stop-color="#F8FAFC"/>
</linearGradient>
<linearGradient id="paint52_linear_27_7" x1="nan" y1="nan" x2="nan" y2="nan" gradientUnits="userSpaceOnUse">
<stop stop-color="#F8FAFC"/>
<stop offset="1" stop-color="#F8FAFC"/>
</linearGradient>
<linearGradient id="paint53_linear_27_7" x1="679.25" y1="80.5" x2="676.125" y2="80.5" gradientUnits="userSpaceOnUse">
<stop stop-color="#F8FAFC"/>
<stop offset="1" stop-color="#F8FAFC"/>
</linearGradient>
<linearGradient id="paint54_linear_27_7" x1="685.5" y1="76.3333" x2="682.375" y2="76.3333" gradientUnits="userSpaceOnUse">
<stop stop-color="#F8FAFC"/>
<stop offset="1" stop-color="#F8FAFC"/>
</linearGradient>
<linearGradient id="paint55_linear_27_7" x1="691.75" y1="72.1667" x2="688.625" y2="72.1667" gradientUnits="userSpaceOnUse">
<stop stop-color="#F8FAFC"/>
<stop offset="1" stop-color="#F8FAFC"/>
</linearGradient>
<linearGradient id="paint56_linear_27_7" x1="nan" y1="nan" x2="nan" y2="nan" gradientUnits="userSpaceOnUse">
<stop stop-color="#F8FAFC"/>
<stop offset="1" stop-color="#F8FAFC"/>
</linearGradient>
<linearGradient id="paint57_linear_27_7" x1="679.25" y1="19.5" x2="676.125" y2="19.5" gradientUnits="userSpaceOnUse">
<stop stop-color="#22D3EE"/>
<stop offset="1" stop-color="#0EA5E9"/>
</linearGradient>
<linearGradient id="paint58_linear_27_7" x1="685.5" y1="15.3333" x2="682.375" y2="15.3333" gradientUnits="userSpaceOnUse">
<stop stop-color="#22D3EE"/>
<stop offset="1" stop-color="#0EA5E9"/>
</linearGradient>
<linearGradient id="paint59_linear_27_7" x1="691.75" y1="11.1667" x2="688.625" y2="11.1667" gradientUnits="userSpaceOnUse">
<stop stop-color="#22D3EE"/>
<stop offset="1" stop-color="#0EA5E9"/>
</linearGradient>
<linearGradient id="paint60_linear_27_7" x1="684.458" y1="27.8333" x2="677.167" y2="27.8333" gradientUnits="userSpaceOnUse">
<stop stop-color="#22D3EE"/>
<stop offset="1" stop-color="#0EA5E9"/>
</linearGradient>
<clipPath id="clip0_27_7">
<rect width="35" height="36" fill="white" transform="translate(498 8)"/>
</clipPath>
<clipPath id="clip1_27_7">
<rect width="35" height="36" fill="white" transform="translate(498 54)"/>
</clipPath>
<clipPath id="clip2_27_7">
<rect width="44" height="44" fill="white" transform="translate(612 7)"/>
</clipPath>
<clipPath id="clip3_27_7">
<rect width="25" height="25" fill="white" transform="translate(673 7)"/>
</clipPath>
<clipPath id="clip4_27_7">
<rect width="44" height="44" fill="white" transform="translate(375 6)"/>
</clipPath>
<clipPath id="clip5_27_7">
<rect width="44" height="44" fill="white" transform="translate(375 51)"/>
</clipPath>
<clipPath id="clip6_27_7">
<rect width="15" height="15" fill="white" transform="translate(452 98)"/>
</clipPath>
<clipPath id="clip7_27_7">
<rect width="15" height="15" fill="white" transform="translate(328 97)"/>
</clipPath>
<clipPath id="clip8_27_7">
<rect width="15" height="15" fill="white" transform="translate(390 98)"/>
</clipPath>
</defs>
</svg>
